SourceSansPro-Italic_0.ufo
<glyph name="Tbar" format="1">
  <advance width="492"/>
  <unicode hex="0166"/>
  <outline>
    <contour>
      <point x="180" y="0" type="line"/>
      <point x="210" y="0" type="line"/>
      <point x="336" y="632" type="line"/>
      <point x="542" y="632" type="line"/>
      <point x="548" y="660" type="line"/>
      <point x="106" y="660" type="line"/>
      <point x="100" y="632" type="line"/>
      <point x="306" y="632" type="line"/>
    </contour>
    <contour>
      <point x="246" y="680" type="move" name="aboveUC"/>
    </contour>
    <contour>
      <point x="246" y="-20" type="move" name="belowLC"/>
    </contour>
  </outline>
</glyph>
<glyph name="tbar" format="1">
	<unicode hex="0167"/>
	<advance width="290"/>
	<outline>
		<contour>
			<point x="26" y="240" type="line"/>
			<point x="262" y="240" type="line"/>
			<point x="268" y="266" type="line"/>
			<point x="108" y="266" type="line"/>
			<point x="30" y="262" type="line"/>
		</contour>
		<component base="t"/>
		<contour>
			<point name="aboveLC" x="194" y="634" type="move"/>
		</contour>
		<contour>
			<point name="belowLC" x="148" y="-20" type="move"/>
		</contour>
	</outline>
</glyph>
<glyph name="dieresistonos" format="1">
	<unicode hex="0385"/>
	<advance width="500"/>
	<outline>
		<component base="dieresistonoscmb" xOffset="214"/>
		<contour>
			<point name="_aboveLC" x="250" y="500" type="move"/>
		</contour>
	</outline>
</glyph>
<glyph name="Epsilon" format="1">
  <advance width="484"/>
  <unicode hex="0395"/>
  <outline>
    <component base="E"/>
    <contour>
      <point x="242" y="680" type="move" name="aboveUC"/>
    </contour>
  </outline>
</glyph>
<glyph name="Iota" format="1">
	<unicode hex="0399"/>
	<advance width="212"/>
	<outline>
		<component base="I"/>
		<contour>
			<point name="aboveUC" x="190" y="680" type="move"/>
		</contour>
	</outline>
</glyph>
<glyph name="Rho" format="1">
	<unicode hex="03A1"/>
	<advance width="524"/>
	<outline>
		<component base="P"/>
		<contour>
			<point name="aboveUC" x="360" y="680" type="move"/>
		</contour>
	</outline>
</glyph>
<glyph name="omicron" format="1">
  <advance width="500"/>
  <unicode hex="03BF"/>
  <outline>
    <component base="o" xOffset="4"/>
    <contour>
      <point x="318" y="500" type="move" name="aboveLC"/>
    </contour>
    <contour>
      <point x="188" y="-20" type="move" name="belowLC"/>
    </contour>
  </outline>
</glyph>
<glyph name="existential" format="1">
  <advance width="484"/>
  <unicode hex="2203"/>
  <outline>
    <contour>
      <point x="-8" y="0" type="line"/>
      <point x="342" y="0" type="line"/>
      <point x="474" y="660" type="line"/>
      <point x="134" y="660" type="line"/>
      <point x="128" y="634" type="line"/>
      <point x="440" y="634" type="line"/>
      <point x="386" y="364" type="line"/>
      <point x="124" y="364" type="line"/>
      <point x="118" y="338" type="line"/>
      <point x="380" y="338" type="line"/>
      <point x="318" y="26" type="line"/>
      <point x="-2" y="26" type="line"/>
    </contour>
  </outline>
</glyph>
<glyph name="Aie" format="1">
	<advance width="774"/>
	<outline>
		<component base="AE"/>
		<contour>
			<point name="aboveUC" x="634" y="680" type="move"/>
		</contour>
	</outline>
</glyph>
<glyph name="De" format="1">
  <advance width="612"/>
  <outline>
    <contour>
      <point x="5" y="-188" type="line"/>
      <point x="31" y="-188" type="line"/>
      <point x="68" y="0" type="line"/>
      <point x="544" y="0" type="line"/>
      <point x="507" y="-188" type="line"/>
      <point x="533" y="-188" type="line"/>
      <point x="578" y="12" type="line"/>
      <point x="581" y="28" type="line"/>
      <point x="41" y="28" type="line"/>
      <point x="38" y="12" type="line"/>
    </contour>
    <contour>
      <point x="95" y="14" type="line"/>
      <point x="126" y="30"/>
      <point x="163" y="68"/>
      <point x="237" y="264" type="curve" smooth="yes"/>
      <point x="289" y="399"/>
      <point x="318" y="494"/>
      <point x="369" y="632" type="curve"/>
      <point x="599" y="632" type="line"/>
      <point x="480" y="20" type="line"/>
      <point x="512" y="20" type="line"/>
      <point x="636" y="660" type="line"/>
      <point x="348" y="660" type="line"/>
      <point x="294" y="506"/>
      <point x="263" y="415"/>
      <point x="209" y="272" type="curve" smooth="yes"/>
      <point x="139" y="86"/>
      <point x="100" y="40"/>
      <point x="71" y="28" type="curve"/>
    </contour>
  </outline>
</glyph>
<glyph name="Dzhe" format="1">
  <advance width="596"/>
  <outline>
    <contour>
      <point x="586" y="660" type="line"/>
      <point x="556" y="660" type="line"/>
      <point x="428" y="26" type="line"/>
      <point x="74" y="26" type="line"/>
      <point x="202" y="660" type="line"/>
      <point x="172" y="660" type="line"/>
      <point x="40" y="0" type="line"/>
      <point x="234" y="0" type="line"/>
      <point x="198" y="-192" type="line"/>
      <point x="220" y="-192" type="line"/>
      <point x="264" y="0" type="line"/>
      <point x="454" y="0" type="line"/>
    </contour>
  </outline>
</glyph>
<glyph name="Eacute" format="1">
	<advance width="484"/>
	<outline>
		<component base="E"/>
		<component base="acutecmb.cap" xOffset="214"/>
		<contour>
			<point name="ogonekUC" x="330" y="0" type="move"/>
		</contour>
	</outline>
</glyph>
<glyph name="El" format="1">
  <advance width="608"/>
  <outline>
    <contour>
      <point x="46" y="-12" type="curve" smooth="yes"/>
      <point x="104" y="-12"/>
      <point x="145" y="24"/>
      <point x="215" y="210" type="curve" smooth="yes"/>
      <point x="268" y="351"/>
      <point x="317" y="490"/>
      <point x="371" y="632" type="curve"/>
      <point x="599" y="632" type="line"/>
      <point x="476" y="0" type="line"/>
      <point x="508" y="0" type="line"/>
      <point x="636" y="660" type="line"/>
      <point x="350" y="660" type="line"/>
      <point x="291" y="500"/>
      <point x="241" y="363"/>
      <point x="184" y="214" type="curve" smooth="yes"/>
      <point x="119" y="46"/>
      <point x="86" y="22"/>
      <point x="50" y="22" type="curve" smooth="yes"/>
      <point x="40" y="22"/>
      <point x="33" y="24"/>
      <point x="23" y="28" type="curve"/>
      <point x="7" y="-4" type="line"/>
      <point x="22" y="-10"/>
      <point x="36" y="-12"/>
    </contour>
  </outline>
</glyph>
<glyph name="Eth" format="1">
	<advance width="590"/>
	<outline>
		<contour>
			<point x="54" y="338" type="line"/>
			<point x="324" y="338" type="line"/>
			<point x="330" y="364" type="line"/>
			<point x="132" y="364" type="line"/>
			<point x="60" y="362" type="line"/>
		</contour>
		<component base="D" xOffset="18"/>
		<contour>
			<point name="aboveUC" x="295" y="680" type="move"/>
		</contour>
		<contour>
			<point name="belowLC" x="295" y="-20" type="move"/>
		</contour>
	</outline>
</glyph>
<glyph name="F" format="1">
	<advance width="448"/>
	<outline>
		<contour>
			<point x="40" y="0" type="line"/>
			<point x="70" y="0" type="line"/>
			<point x="136" y="326" type="line"/>
			<point x="398" y="326" type="line"/>
			<point x="404" y="352" type="line"/>
			<point x="140" y="352" type="line"/>
			<point x="196" y="634" type="line"/>
			<point x="508" y="634" type="line"/>
			<point x="514" y="660" type="line"/>
			<point x="172" y="660" type="line"/>
		</contour>
		<contour>
			<point name="aboveUC" x="350" y="680" type="move"/>
		</contour>
		<contour>
			<point name="belowLC" x="66" y="-20" type="move"/>
		</contour>
		<contour>
			<point name="baseLC" x="224" y="0" type="move"/>
		</contour>
	</outline>
</glyph>
<glyph name="Ghe" format="1">
  <advance width="454"/>
  <outline>
    <component base="Gamma"/>
    <contour>
      <point x="350" y="680" type="move" name="aboveUC"/>
    </contour>
  </outline>
</glyph>
<glyph name="H" format="1">
  <advance width="598"/>
  <outline>
    <contour>
      <point x="40" y="0" type="line"/>
      <point x="70" y="0" type="line"/>
      <point x="138" y="338" type="line"/>
      <point x="494" y="338" type="line"/>
      <point x="426" y="0" type="line"/>
      <point x="456" y="0" type="line"/>
      <point x="588" y="660" type="line"/>
      <point x="558" y="660" type="line"/>
      <point x="498" y="364" type="line"/>
      <point x="142" y="364" type="line"/>
      <point x="202" y="660" type="line"/>
      <point x="172" y="660" type="line"/>
    </contour>
    <contour>
      <point x="386" y="680" type="move" name="aboveUC"/>
    </contour>
    <contour>
      <point x="256" y="-20" type="move" name="belowLC"/>
    </contour>
  </outline>
</glyph>
<glyph name="I" format="1">
  <advance width="218"/>
  <outline>
    <contour>
      <point x="40" y="0" type="line"/>
      <point x="70" y="0" type="line"/>
      <point x="202" y="660" type="line"/>
      <point x="172" y="660" type="line"/>
    </contour>
    <contour>
      <point x="190" y="680" type="move" name="aboveUC"/>
    </contour>
    <contour>
      <point x="52" y="-20" type="move" name="belowLC"/>
    </contour>
    <contour>
      <point x="54" y="0" type="move" name="ogonekUC"/>
    </contour>
  </outline>
</glyph>
<glyph name="Iukran" format="1">
  <advance width="218"/>
  <outline>
    <component base="I"/>
    <contour>
      <point x="190" y="680" type="move" name="aboveUC"/>
    </contour>
  </outline>
</glyph>
<glyph name="Ka" format="1">
  <advance width="516"/>
  <outline>
    <contour>
      <point x="40" y="0" type="line"/>
      <point x="70" y="0" type="line"/>
      <point x="138" y="340" type="line"/>
      <point x="262" y="340" type="line"/>
      <point x="422" y="0" type="line"/>
      <point x="452" y="0" type="line"/>
      <point x="288" y="354" type="line"/>
      <point x="582" y="660" type="line"/>
      <point x="544" y="660" type="line"/>
      <point x="260" y="366" type="line"/>
      <point x="142" y="366" type="line"/>
      <point x="202" y="660" type="line"/>
      <point x="172" y="660" type="line"/>
    </contour>
  </outline>
</glyph>
<glyph name="L" format="1">
  <advance width="432"/>
  <outline>
    <contour>
      <point x="40" y="0" type="line"/>
      <point x="370" y="0" type="line"/>
      <point x="376" y="26" type="line"/>
      <point x="76" y="26" type="line"/>
      <point x="202" y="660" type="line"/>
      <point x="172" y="660" type="line"/>
    </contour>
    <contour>
      <point x="190" y="680" type="move" name="aboveUC"/>
    </contour>
    <contour>
      <point x="210" y="-20" type="move" name="belowLC"/>
    </contour>
    <contour>
      <point x="216" y="0" type="move" name="center"/>
    </contour>
    <contour>
      <point x="216" y="0" type="move" name="baseLC"/>
    </contour>
  </outline>
</glyph>
<glyph name="Lmiddletilde" format="1">
	<advance width="432"/>
	<outline>
		<component base="L"/>
		<component base="tildeoverlaycmb"/>
		<contour>
			<point name="aboveUC" x="190" y="680" type="move"/>
		</contour>
		<contour>
			<point name="belowLC" x="210" y="-20" type="move"/>
		</contour>
	</outline>
</glyph>
<glyph name="Lsmall" format="1">
  <advance width="394"/>
  <outline>
    <contour>
      <point x="44" y="0" type="line"/>
      <point x="316" y="0" type="line"/>
      <point x="322" y="26" type="line"/>
      <point x="78" y="26" type="line"/>
      <point x="168" y="478" type="line"/>
      <point x="140" y="478" type="line"/>
    </contour>
    <contour>
      <point x="227" y="562" type="move" name="aboveUC"/>
    </contour>
    <contour>
      <point x="248" y="-22" type="move" name="belowLC"/>
    </contour>
  </outline>
</glyph>
<glyph name="M" format="1">
	<advance width="676"/>
	<outline>
		<contour>
			<point x="40" y="0" type="line"/>
			<point x="70" y="0" type="line"/>
			<point x="162" y="460" type="line" smooth="yes"/>
			<point x="172" y="514"/>
			<point x="182" y="578"/>
			<point x="192" y="632" type="curve"/>
			<point x="196" y="632" type="line"/>
			<point x="220" y="490" type="line"/>
			<point x="292" y="76" type="line"/>
			<point x="326" y="76" type="line"/>
			<point x="552" y="490" type="line"/>
			<point x="630" y="632" type="line"/>
			<point x="634" y="632" type="line"/>
			<point x="622" y="580"/>
			<point x="608" y="514"/>
			<point x="596" y="460" type="curve" smooth="yes"/>
			<point x="504" y="0" type="line"/>
			<point x="534" y="0" type="line"/>
			<point x="666" y="660" type="line"/>
			<point x="616" y="660" type="line"/>
			<point x="396" y="262" type="line"/>
			<point x="318" y="112" type="line"/>
			<point x="314" y="112" type="line"/>
			<point x="288" y="262" type="line"/>
			<point x="222" y="660" type="line"/>
			<point x="172" y="660" type="line"/>
		</contour>
		<contour>
			<point name="aboveUC" x="420" y="680" type="move"/>
		</contour>
		<contour>
			<point name="belowLC" x="300" y="-20" type="move"/>
		</contour>
		<contour>
			<point name="baseLC" x="518" y="0" type="move"/>
		</contour>
	</outline>
</glyph>
<glyph name="O" format="1">
  <advance width="612"/>
  <outline>
    <contour>
      <point x="274" y="-12" type="curve" smooth="yes"/>
      <point x="472" y="-12"/>
      <point x="584" y="222"/>
      <point x="584" y="398" type="curve" smooth="yes"/>
      <point x="584" y="558"/>
      <point x="516" y="672"/>
      <point x="372" y="672" type="curve" smooth="yes"/>
      <point x="174" y="672"/>
      <point x="62" y="438"/>
      <point x="62" y="262" type="curve" smooth="yes"/>
      <point x="62" y="102"/>
      <point x="130" y="-12"/>
    </contour>
    <contour>
      <point x="276" y="14" type="curve" smooth="yes"/>
      <point x="146" y="14"/>
      <point x="92" y="118"/>
      <point x="92" y="266" type="curve" smooth="yes"/>
      <point x="92" y="422"/>
      <point x="190" y="646"/>
      <point x="370" y="646" type="curve" smooth="yes"/>
      <point x="500" y="646"/>
      <point x="554" y="542"/>
      <point x="554" y="394" type="curve" smooth="yes"/>
      <point x="554" y="238"/>
      <point x="456" y="14"/>
    </contour>
    <contour>
      <point x="390.0" y="680.0" type="move" name="aboveUC"/>
    </contour>
    <contour>
      <point x="252" y="-20" type="move" name="belowLC"/>
    </contour>
    <contour>
      <point x="256" y="0" type="move" name="ogonekUC"/>
    </contour>
    <contour>
      <point x="498.0" y="650.0" type="move" name="hornLC"/>
    </contour>
  </outline>
</glyph>
<glyph name="Obarcyr" format="1">
	<advance width="612"/>
	<outline>
		<component base="Fita"/>
		<contour>
			<point name="aboveUC" x="306" y="680" type="move"/>
		</contour>
	</outline>
</glyph>
<glyph name="Oslash" format="1">
  <advance width="612"/>
  <outline>
    <contour>
      <point x="24" y="-22" type="line"/>
      <point x="642" y="660" type="line"/>
      <point x="626" y="678" type="line"/>
      <point x="2" y="-4" type="line"/>
    </contour>
    <component base="O"/>
    <contour>
      <point x="390.0" y="680.0" type="move" name="aboveUC"/>
    </contour>
  </outline>
</glyph>
<glyph name="Sha" format="1">
  <advance width="762"/>
  <outline>
    <contour>
      <point x="40" y="0" type="line"/>
      <point x="610" y="0" type="line"/>
      <point x="742" y="660" type="line"/>
      <point x="712" y="660" type="line"/>
      <point x="586" y="26" type="line"/>
      <point x="346" y="26" type="line"/>
      <point x="472" y="660" type="line"/>
      <point x="442" y="660" type="line"/>
      <point x="316" y="26" type="line"/>
      <point x="76" y="26" type="line"/>
      <point x="202" y="660" type="line"/>
      <point x="172" y="660" type="line"/>
    </contour>
  </outline>
</glyph>
<glyph name="Shcha" format="1">
  <advance width="756"/>
  <outline>
    <contour>
      <point x="596" y="0" type="line"/>
      <point x="640" y="0" type="line"/>
      <point x="602" y="-192" type="line"/>
      <point x="626" y="-192" type="line"/>
      <point x="672" y="10" type="line"/>
      <point x="674" y="26" type="line"/>
      <point x="601" y="26" type="line"/>
    </contour>
    <component base="Sha"/>
  </outline>
</glyph>
<glyph name="T" format="1">
	<advance width="492"/>
	<outline>
		<contour>
			<point x="180" y="0" type="line"/>
			<point x="210" y="0" type="line"/>
			<point x="336" y="632" type="line"/>
			<point x="542" y="632" type="line"/>
			<point x="548" y="660" type="line"/>
			<point x="106" y="660" type="line"/>
			<point x="100" y="632" type="line"/>
			<point x="306" y="632" type="line"/>
		</contour>
		<contour>
			<point name="aboveUC" x="330" y="680" type="move"/>
		</contour>
		<contour>
			<point name="belowLC" x="190" y="-20" type="move"/>
		</contour>
		<contour>
			<point name="baseLC" x="196" y="0" type="move"/>
		</contour>
	</outline>
</glyph>
<glyph name="U" format="1">
  <advance width="594"/>
  <outline>
    <contour>
      <point x="268" y="-12" type="curve" smooth="yes"/>
      <point x="368" y="-12"/>
      <point x="464" y="50"/>
      <point x="500" y="230" type="curve" smooth="yes"/>
      <point x="586" y="660" type="line"/>
      <point x="556" y="660" type="line"/>
      <point x="472" y="238" type="line" smooth="yes"/>
      <point x="440" y="76"/>
      <point x="358" y="14"/>
      <point x="272" y="14" type="curve" smooth="yes"/>
      <point x="166" y="14"/>
      <point x="112" y="78"/>
      <point x="112" y="188" type="curve" smooth="yes"/>
      <point x="112" y="212"/>
      <point x="114" y="238"/>
      <point x="122" y="270" type="curve" smooth="yes"/>
      <point x="200" y="660" type="line"/>
      <point x="170" y="660" type="line"/>
      <point x="90" y="262" type="line" smooth="yes"/>
      <point x="84" y="230"/>
      <point x="82" y="206"/>
      <point x="82" y="180" type="curve" smooth="yes"/>
      <point x="82" y="58"/>
      <point x="152" y="-12"/>
    </contour>
    <contour>
      <point x="380" y="680" type="move" name="aboveUC"/>
    </contour>
    <contour>
      <point x="240" y="-20" type="move" name="belowLC"/>
    </contour>
    <contour>
      <point x="246" y="0" type="move" name="ogonekUC"/>
    </contour>
    <contour>
      <point x="570" y="670" type="move" name="hornLC"/>
    </contour>
  </outline>
</glyph>
<glyph name="Y" format="1">
  <advance width="422"/>
  <outline>
    <contour>
      <point x="140" y="0" type="line"/>
      <point x="170" y="0" type="line"/>
      <point x="225" y="273" type="line"/>
      <point x="498" y="660" type="line"/>
      <point x="466" y="660" type="line"/>
      <point x="315" y="445" type="line" smooth="yes"/>
      <point x="282" y="398"/>
      <point x="250" y="350"/>
      <point x="217" y="303" type="curve"/>
      <point x="214" y="303" type="line"/>
      <point x="200" y="352"/>
      <point x="188" y="397"/>
      <point x="175" y="445" type="curve" smooth="yes"/>
      <point x="116" y="660" type="line"/>
      <point x="86" y="660" type="line"/>
      <point x="195" y="273" type="line"/>
    </contour>
    <contour>
      <point x="300" y="680" type="move" name="aboveUC"/>
    </contour>
    <contour>
      <point x="150" y="-20" type="move" name="belowLC"/>
    </contour>
    <contour>
      <point x="211" y="0" type="move" name="ogonekUC"/>
    </contour>
  </outline>
</glyph>
<glyph name="Ysmall" format="1">
  <advance width="374"/>
  <outline>
    <contour>
      <point x="172" y="0" type="line"/>
      <point x="202" y="0" type="line"/>
      <point x="236" y="176" type="line"/>
      <point x="463" y="478" type="line"/>
      <point x="429" y="478" type="line"/>
      <point x="311" y="316" type="line"/>
      <point x="285" y="279"/>
      <point x="259" y="245"/>
      <point x="230" y="208" type="curve"/>
      <point x="226" y="208" type="line"/>
      <point x="212" y="245"/>
      <point x="198" y="279"/>
      <point x="185" y="316" type="curve"/>
      <point x="131" y="478" type="line"/>
      <point x="97" y="478" type="line"/>
      <point x="206" y="176" type="line"/>
    </contour>
    <contour>
      <point x="286" y="502" type="move" name="aboveLC"/>
    </contour>
    <contour>
      <point x="182" y="-22" type="move" name="belowLC"/>
    </contour>
  </outline>
</glyph>
<glyph name="Z" format="1">
  <advance width="502"/>
  <outline>
    <contour>
      <point x="2" y="0" type="line"/>
      <point x="410" y="0" type="line"/>
      <point x="416" y="26" type="line"/>
      <point x="46" y="26" type="line"/>
      <point x="524" y="642" type="line"/>
      <point x="528" y="660" type="line"/>
      <point x="158" y="660" type="line"/>
      <point x="152" y="634" type="line"/>
      <point x="486" y="634" type="line"/>
      <point x="6" y="18" type="line"/>
    </contour>
    <contour>
      <point x="334" y="680" type="move" name="aboveUC"/>
    </contour>
    <contour>
      <point x="208" y="-20" type="move" name="belowLC"/>
    </contour>
    <contour>
      <point x="251" y="0" type="move" name="baseLC"/>
    </contour>
  </outline>
</glyph>
<glyph name="Zhe" format="1">
  <advance width="754"/>
  <outline>
    <contour>
      <point x="10" y="0" type="line"/>
      <point x="48" y="0" type="line"/>
      <point x="311" y="338" type="line"/>
      <point x="428" y="338" type="line"/>
      <point x="362" y="0" type="line"/>
      <point x="392" y="0" type="line"/>
      <point x="458" y="338" type="line"/>
      <point x="575" y="338" type="line"/>
      <point x="706" y="0" type="line"/>
      <point x="744" y="0" type="line"/>
      <point x="599" y="366" type="line"/>
      <point x="463" y="366" type="line"/>
      <point x="520" y="660" type="line"/>
      <point x="490" y="660" type="line"/>
      <point x="433" y="366" type="line"/>
      <point x="297" y="366" type="line"/>
    </contour>
    <contour>
      <point x="600" y="350" type="line"/>
      <point x="720" y="536" type="line"/>
      <point x="781" y="629"/>
      <point x="808" y="638"/>
      <point x="836" y="638" type="curve" smooth="yes"/>
      <point x="842" y="638"/>
      <point x="850" y="636"/>
      <point x="855" y="634" type="curve"/>
      <point x="868" y="668" type="line"/>
      <point x="862" y="670"/>
      <point x="855" y="672"/>
      <point x="847" y="672" type="curve" smooth="yes"/>
      <point x="800" y="672"/>
      <point x="765" y="654"/>
      <point x="694" y="546" type="curve"/>
      <point x="571" y="356" type="line"/>
    </contour>
    <contour>
      <point x="290" y="350" type="line"/>
      <point x="321" y="356" type="line"/>
      <point x="272" y="546" type="line"/>
      <point x="243" y="654"/>
      <point x="216" y="672"/>
      <point x="169" y="672" type="curve" smooth="yes"/>
      <point x="161" y="672"/>
      <point x="152" y="670"/>
      <point x="146" y="668" type="curve"/>
      <point x="145" y="634" type="line"/>
      <point x="152" y="636"/>
      <point x="160" y="638"/>
      <point x="166" y="638" type="curve" smooth="yes"/>
      <point x="194" y="638"/>
      <point x="217" y="629"/>
      <point x="242" y="536" type="curve"/>
    </contour>
    <contour>
      <point x="505" y="682" type="move" name="aboveUC"/>
    </contour>
  </outline>
</glyph>
<glyph name=".notdef" format="1">
  <advance width="600"/>
  <outline>
    <contour>
      <point x="42" y="0" type="line"/>
      <point x="458" y="0" type="line"/>
      <point x="588" y="660" type="line"/>
      <point x="172" y="660" type="line"/>
    </contour>
    <contour>
      <point x="96" y="32" type="line"/>
      <point x="228" y="208" type="line"/>
      <point x="310" y="312" type="line"/>
      <point x="314" y="312" type="line"/>
      <point x="354" y="208" type="line"/>
      <point x="414" y="32" type="line"/>
    </contour>
    <contour>
      <point x="320" y="364" type="line"/>
      <point x="286" y="456" type="line"/>
      <point x="230" y="628" type="line"/>
      <point x="522" y="628" type="line"/>
      <point x="396" y="456" type="line"/>
      <point x="324" y="364" type="line"/>
    </contour>
    <contour>
      <point x="96" y="72" type="line"/>
      <point x="202" y="610" type="line"/>
      <point x="294" y="340" type="line"/>
    </contour>
    <contour>
      <point x="434" y="72" type="line"/>
      <point x="342" y="340" type="line"/>
      <point x="544" y="610" type="line"/>
    </contour>
    <contour>
      <point x="343" y="-12" type="curve" smooth="yes"/>
      <point x="443" y="-12"/>
      <point x="513" y="47"/>
      <point x="513" y="124" type="curve"/>
      <point x="513" y="258"/>
      <point x="328" y="274"/>
      <point x="328" y="362" type="curve" smooth="yes"/>
      <point x="328" y="456"/>
      <point x="490" y="482"/>
      <point x="490" y="616" type="curve" smooth="yes"/>
      <point x="490" y="692"/>
      <point x="438" y="734"/>
      <point x="359" y="734" type="curve" smooth="yes"/>
      <point x="253" y="734"/>
      <point x="175" y="658"/>
      <point x="149" y="530" type="curve" smooth="yes"/>
      <point x="43" y="0" type="line"/>
      <point x="71" y="0" type="line"/>
      <point x="175" y="520" type="line" smooth="yes"/>
      <point x="199" y="641"/>
      <point x="269" y="708"/>
      <point x="357" y="708" type="curve" smooth="yes"/>
      <point x="431" y="708"/>
      <point x="461" y="668"/>
      <point x="461" y="616" type="curve" smooth="yes"/>
      <point x="461" y="494"/>
      <point x="299" y="472"/>
      <point x="299" y="359" type="curve"/>
      <point x="299" y="254"/>
      <point x="484" y="241"/>
      <point x="484" y="121" type="curve"/>
      <point x="484" y="60"/>
      <point x="419" y="14"/>
      <point x="345" y="14" type="curve" smooth="yes"/>
      <point x="295" y="14"/>
      <point x="256" y="31"/>
      <point x="217" y="64" type="curve"/>
      <point x="201" y="42" type="line"/>
      <point x="242" y="4"/>
      <point x="294" y="-12"/>
    </contour>
  </outline>
</glyph>
<glyph name="aacute.a" format="1">
	<advance width="474"/>
	<outline>
		<component base="a.a"/>
		<component base="acutecmb" xOffset="192"/>
		<contour>
			<point name="ogonekLC" x="300" y="0" type="move"/>
		</contour>
	</outline>
</glyph>
<glyph name="acyr.a" format="1">
  <advance width="474"/>
  <outline>
    <component base="a.alt"/>
    <contour>
      <point x="292" y="500" type="move" name="aboveLC"/>
    </contour>
  </outline>
</glyph>
<glyph name="adieresis.a" format="1">
  <advance width="474"/>
  <outline>
    <component base="a.a"/>
    <component base="dieresiscmb" xOffset="192"/>
    <contour>
      <point x="237" y="0" type="move" name="ogonekLC"/>
    </contour>
  </outline>
</glyph>
<glyph name="adieresis" format="1">
  <advance width="524"/>
  <outline>
    <component base="a"/>
    <component base="dieresiscmb" xOffset="214"/>
    <contour>
      <point x="262" y="0" type="move" name="ogonekLC"/>
    </contour>
  </outline>
</glyph>
<glyph name="alphalatin" format="1">
	<advance width="524"/>
	<outline>
		<component base="a"/>
		<contour>
			<point name="aboveLC" x="314" y="500" type="move"/>
		</contour>
		<contour>
			<point name="belowLC" x="210" y="-20" type="move"/>
		</contour>
		<contour>
			<point name="baseLC" x="200" y="0" type="move"/>
		</contour>
	</outline>
</glyph>
<glyph name="aring.a" format="1">
	<advance width="474"/>
	<outline>
		<component base="a.a"/>
		<component base="ringcmb" xOffset="192"/>
		<contour>
			<point name="ogonekLC" x="300" y="0" type="move"/>
		</contour>
	</outline>
</glyph>
<glyph name="aring" format="1">
	<advance width="524"/>
	<outline>
		<component base="a"/>
		<component base="ringcmb" xOffset="214"/>
		<contour>
			<point name="ogonekLC" x="334" y="0" type="move"/>
		</contour>
	</outline>
</glyph>
<glyph name="arrowdown" format="1">
  <advance width="594"/>
  <outline>
    <contour>
      <point x="294" y="-28" type="line"/>
      <point x="300" y="-28" type="line"/>
      <point x="562" y="230" type="line"/>
      <point x="544" y="248" type="line"/>
      <point x="310" y="16" type="line"/>
      <point x="310" y="524" type="line"/>
      <point x="284" y="524" type="line"/>
      <point x="284" y="16" type="line"/>
      <point x="50" y="248" type="line"/>
      <point x="32" y="230" type="line"/>
    </contour>
  </outline>
</glyph>
<glyph name="arrowdownleft" format="1">
	<advance width="594"/>
	<outline>
		<contour>
			<point x="96" y="55" type="line"/>
			<point x="101" y="51" type="line"/>
			<point x="468" y="48" type="line"/>
			<point x="469" y="73" type="line"/>
			<point x="139" y="75" type="line"/>
			<point x="505" y="434" type="line"/>
			<point x="487" y="452" type="line"/>
			<point x="121" y="93" type="line"/>
			<point x="125" y="423" type="line"/>
			<point x="100" y="423" type="line"/>
		</contour>
	</outline>
</glyph>
<glyph name="arrowdownright" format="1">
  <advance width="594"/>
  <outline>
    <contour>
      <point x="120" y="51" type="line"/>
      <point x="488" y="54" type="line"/>
      <point x="492" y="58" type="line"/>
      <point x="501" y="426" type="line"/>
      <point x="476" y="426" type="line"/>
      <point x="469" y="96" type="line"/>
      <point x="116" y="455" type="line"/>
      <point x="97" y="437" type="line"/>
      <point x="450" y="78" type="line"/>
      <point x="120" y="76" type="line"/>
    </contour>
  </outline>
</glyph>
<glyph name="arrowleft" format="1">
  <advance width="594"/>
  <outline>
    <contour>
      <point x="278" y="-14" type="line"/>
      <point x="296" y="4" type="line"/>
      <point x="64" y="238" type="line"/>
      <point x="572" y="238" type="line"/>
      <point x="572" y="264" type="line"/>
      <point x="64" y="264" type="line"/>
      <point x="296" y="498" type="line"/>
      <point x="278" y="516" type="line"/>
      <point x="20" y="254" type="line"/>
      <point x="20" y="248" type="line"/>
    </contour>
  </outline>
</glyph>
<glyph name="arrowright" format="1">
  <advance width="594"/>
  <outline>
    <contour>
      <point x="316" y="-14" type="line"/>
      <point x="574" y="248" type="line"/>
      <point x="574" y="254" type="line"/>
      <point x="316" y="516" type="line"/>
      <point x="298" y="498" type="line"/>
      <point x="530" y="264" type="line"/>
      <point x="22" y="264" type="line"/>
      <point x="22" y="238" type="line"/>
      <point x="530" y="238" type="line"/>
      <point x="298" y="4" type="line"/>
    </contour>
  </outline>
</glyph>
<glyph name="arrowup" format="1">
  <advance width="594"/>
  <outline>
    <contour>
      <point x="284" y="-24" type="line"/>
      <point x="310" y="-24" type="line"/>
      <point x="310" y="484" type="line"/>
      <point x="544" y="252" type="line"/>
      <point x="562" y="270" type="line"/>
      <point x="300" y="528" type="line"/>
      <point x="294" y="528" type="line"/>
      <point x="32" y="270" type="line"/>
      <point x="50" y="252" type="line"/>
      <point x="284" y="484" type="line"/>
    </contour>
  </outline>
</glyph>
<glyph name="arrowupleft" format="1">
	<advance width="594"/>
	<outline>
		<contour>
			<point x="93" y="76" type="line"/>
			<point x="118" y="76" type="line"/>
			<point x="125" y="406" type="line"/>
			<point x="478" y="47" type="line"/>
			<point x="497" y="65" type="line"/>
			<point x="144" y="424" type="line"/>
			<point x="474" y="426" type="line"/>
			<point x="474" y="451" type="line"/>
			<point x="106" y="448" type="line"/>
			<point x="102" y="444" type="line"/>
		</contour>
	</outline>
</glyph>
<glyph name="arrowupright" format="1">
  <advance width="594"/>
  <outline>
    <contour>
      <point x="89" y="66" type="line"/>
      <point x="107" y="48" type="line"/>
      <point x="473" y="407" type="line"/>
      <point x="469" y="77" type="line"/>
      <point x="494" y="77" type="line"/>
      <point x="498" y="445" type="line"/>
      <point x="493" y="449" type="line"/>
      <point x="126" y="452" type="line"/>
      <point x="125" y="427" type="line"/>
      <point x="455" y="425" type="line"/>
    </contour>
  </outline>
</glyph>
<glyph name="asper.cap" format="1">
  <advance width="82"/>
  <outline>
    <contour>
      <point x="168" y="486" type="curve"/>
      <point x="181" y="508" type="line"/>
      <point x="146" y="524"/>
      <point x="122" y="546"/>
      <point x="130" y="586" type="curve" smooth="yes"/>
      <point x="137" y="624"/>
      <point x="174" y="646"/>
      <point x="228" y="646" type="curve"/>
      <point x="231" y="672" type="line"/>
      <point x="172" y="670"/>
      <point x="112" y="647"/>
      <point x="101" y="590" type="curve" smooth="yes"/>
      <point x="89" y="528"/>
      <point x="128" y="504"/>
    </contour>
  </outline>
</glyph>
<glyph name="asperacute.cap" format="1">
  <advance width="160"/>
  <outline>
    <contour>
      <point x="151" y="490" type="line"/>
      <point x="174" y="484" type="line"/>
      <point x="251" y="664" type="line"/>
      <point x="216" y="670" type="line"/>
    </contour>
    <contour>
      <point x="88" y="486" type="curve"/>
      <point x="105" y="508" type="line"/>
      <point x="80" y="526"/>
      <point x="63" y="552"/>
      <point x="69" y="582" type="curve" smooth="yes"/>
      <point x="77" y="624"/>
      <point x="105" y="644"/>
      <point x="148" y="646" type="curve"/>
      <point x="151" y="672" type="line"/>
      <point x="102" y="670"/>
      <point x="52" y="646"/>
      <point x="40" y="586" type="curve" smooth="yes"/>
      <point x="31" y="538"/>
      <point x="58" y="506"/>
    </contour>
  </outline>
</glyph>
<glyph name="asperacutecmb" format="1">
  <advance width="0"/>
  <outline>
    <contour>
      <point x="64" y="578" type="curve"/>
      <point x="77" y="600" type="line"/>
      <point x="46" y="610"/>
      <point x="26" y="628"/>
      <point x="32" y="658" type="curve" smooth="yes"/>
      <point x="38" y="690"/>
      <point x="69" y="706"/>
      <point x="118" y="708" type="curve"/>
      <point x="121" y="734" type="line"/>
      <point x="67" y="732"/>
      <point x="12" y="712"/>
      <point x="3" y="662" type="curve" smooth="yes"/>
      <point x="-7" y="612"/>
      <point x="27" y="591"/>
    </contour>
    <contour>
      <point x="114" y="566" type="line"/>
      <point x="137" y="560" type="line"/>
      <point x="237" y="744" type="line"/>
      <point x="200" y="752" type="line"/>
    </contour>
    <contour>
      <point x="98" y="502" type="move" name="_aboveLC"/>
    </contour>
  </outline>
</glyph>
<glyph name="aspergrave.cap" format="1">
  <advance width="160"/>
  <outline>
    <contour>
      <point x="194" y="484" type="line"/>
      <point x="219" y="490" type="line"/>
      <point x="224" y="670" type="line"/>
      <point x="187" y="664" type="line"/>
    </contour>
    <contour>
      <point x="88" y="486" type="curve"/>
      <point x="105" y="508" type="line"/>
      <point x="80" y="526"/>
      <point x="63" y="552"/>
      <point x="69" y="582" type="curve" smooth="yes"/>
      <point x="77" y="624"/>
      <point x="105" y="644"/>
      <point x="148" y="646" type="curve"/>
      <point x="151" y="672" type="line"/>
      <point x="102" y="670"/>
      <point x="52" y="646"/>
      <point x="40" y="586" type="curve" smooth="yes"/>
      <point x="31" y="538"/>
      <point x="58" y="506"/>
    </contour>
  </outline>
</glyph>
<glyph name="aspergravecmb" format="1">
  <advance width="0"/>
  <outline>
    <contour>
      <point x="54" y="578" type="curve"/>
      <point x="67" y="600" type="line"/>
      <point x="36" y="610"/>
      <point x="16" y="628"/>
      <point x="22" y="658" type="curve" smooth="yes"/>
      <point x="28" y="690"/>
      <point x="59" y="706"/>
      <point x="108" y="708" type="curve"/>
      <point x="111" y="734" type="line"/>
      <point x="57" y="732"/>
      <point x="2" y="712"/>
      <point x="-7" y="662" type="curve" smooth="yes"/>
      <point x="-17" y="612"/>
      <point x="17" y="591"/>
    </contour>
    <contour>
      <point x="161" y="560" type="line"/>
      <point x="186" y="566" type="line"/>
      <point x="178" y="752" type="line"/>
      <point x="139" y="744" type="line"/>
    </contour>
    <contour>
      <point x="98" y="502" type="move" name="_aboveLC"/>
    </contour>
  </outline>
</glyph>
<glyph name="aspertilde.cap" format="1">
	<advance width="160"/>
	<outline>
		<contour>
			<point x="131" y="468" type="curve"/>
			<point x="143" y="490" type="line"/>
			<point x="115" y="498"/>
			<point x="96" y="512"/>
			<point x="99" y="528" type="curve" smooth="yes"/>
			<point x="103" y="552"/>
			<point x="130" y="565"/>
			<point x="178" y="566" type="curve"/>
			<point x="181" y="590" type="line"/>
			<point x="128" y="588"/>
			<point x="77" y="573"/>
			<point x="69" y="532" type="curve" smooth="yes"/>
			<point x="63" y="498"/>
			<point x="99" y="478"/>
		</contour>
		<contour>
			<point x="36" y="618" type="curve"/>
			<point x="59" y="614" type="line"/>
			<point x="67" y="642"/>
			<point x="83" y="648"/>
			<point x="100" y="648" type="curve" smooth="yes"/>
			<point x="136" y="648"/>
			<point x="137" y="612"/>
			<point x="187" y="612" type="curve" smooth="yes"/>
			<point x="227" y="612"/>
			<point x="246" y="639"/>
			<point x="254" y="668" type="curve"/>
			<point x="231" y="672" type="line"/>
			<point x="223" y="644"/>
			<point x="207" y="638"/>
			<point x="190" y="638" type="curve" smooth="yes"/>
			<point x="154" y="638"/>
			<point x="153" y="674"/>
			<point x="103" y="674" type="curve" smooth="yes"/>
			<point x="63" y="674"/>
			<point x="44" y="647"/>
		</contour>
	</outline>
</glyph>
<glyph name="aspertildecmb" format="1">
  <advance width="0"/>
  <outline>
    <contour>
      <point x="129" y="562" type="curve"/>
      <point x="142" y="584" type="line"/>
      <point x="113" y="592"/>
      <point x="94" y="606"/>
      <point x="97" y="622" type="curve" smooth="yes"/>
      <point x="102" y="646"/>
      <point x="128" y="659"/>
      <point x="176" y="660" type="curve"/>
      <point x="179" y="684" type="line"/>
      <point x="127" y="682"/>
      <point x="76" y="667"/>
      <point x="68" y="626" type="curve" smooth="yes"/>
      <point x="61" y="592"/>
      <point x="97" y="572"/>
    </contour>
    <contour>
      <point x="9" y="704" type="curve"/>
      <point x="32" y="702" type="line"/>
      <point x="42" y="732"/>
      <point x="52" y="748"/>
      <point x="75" y="748" type="curve" smooth="yes"/>
      <point x="120" y="748"/>
      <point x="147" y="706"/>
      <point x="207" y="706" type="curve" smooth="yes"/>
      <point x="251" y="706"/>
      <point x="271" y="745"/>
      <point x="279" y="776" type="curve"/>
      <point x="255" y="778" type="line"/>
      <point x="245" y="748"/>
      <point x="235" y="732"/>
      <point x="212" y="732" type="curve" smooth="yes"/>
      <point x="166" y="732"/>
      <point x="141" y="774"/>
      <point x="80" y="774" type="curve" smooth="yes"/>
      <point x="36" y="774"/>
      <point x="17" y="735"/>
    </contour>
    <contour>
      <point x="100" y="500" type="move" name="_aboveLC"/>
    </contour>
  </outline>
</glyph>
<glyph name="aturned" format="1">
	<advance width="494"/>
	<outline>
		<contour>
			<point x="262" y="-12" type="curve" smooth="yes"/>
			<point x="335" y="-12"/>
			<point x="405" y="28"/>
			<point x="438" y="50" type="curve"/>
			<point x="426" y="74" type="line"/>
			<point x="394" y="50"/>
			<point x="333" y="16"/>
			<point x="269" y="16" type="curve" smooth="yes"/>
			<point x="145" y="16"/>
			<point x="137" y="108"/>
			<point x="153" y="180" type="curve"/>
			<point x="374" y="205"/>
			<point x="482" y="258"/>
			<point x="504" y="371" type="curve" smooth="yes"/>
			<point x="520" y="455"/>
			<point x="468" y="490"/>
			<point x="399" y="490" type="curve" smooth="yes"/>
			<point x="335" y="490"/>
			<point x="262" y="456"/>
			<point x="199" y="404" type="curve"/>
			<point x="197" y="404" type="line"/>
			<point x="207" y="478" type="line"/>
			<point x="181" y="478" type="line"/>
			<point x="123" y="178" type="line" smooth="yes"/>
			<point x="103" y="77"/>
			<point x="126" y="-12"/>
		</contour>
		<contour>
			<point x="158" y="206" type="curve"/>
			<point x="190" y="368" type="line"/>
			<point x="271" y="436"/>
			<point x="336" y="462"/>
			<point x="392" y="462" type="curve" smooth="yes"/>
			<point x="445" y="462"/>
			<point x="485" y="437"/>
			<point x="472" y="370" type="curve" smooth="yes"/>
			<point x="455" y="283"/>
			<point x="373" y="232"/>
		</contour>
		<contour>
			<point name="aboveLC" x="368" y="500" type="move"/>
		</contour>
		<contour>
			<point name="belowLC" x="268" y="-20" type="move"/>
		</contour>
		<contour>
			<point name="ogonekLC" x="324" y="0" type="move"/>
		</contour>
	</outline>
</glyph>
<glyph name="bhook" format="1">
	<advance width="540"/>
	<outline>
		<contour>
			<point x="272" y="-12" type="curve" smooth="yes"/>
			<point x="386" y="-12"/>
			<point x="502" y="84"/>
			<point x="534" y="246" type="curve" smooth="yes"/>
			<point x="563" y="394"/>
			<point x="519" y="490"/>
			<point x="389" y="490" type="curve" smooth="yes"/>
			<point x="329" y="490"/>
			<point x="262" y="454"/>
			<point x="204" y="412" type="curve"/>
			<point x="235" y="562" type="line"/>
			<point x="252" y="646"/>
			<point x="295" y="706"/>
			<point x="371" y="706" type="curve" smooth="yes"/>
			<point x="389" y="706"/>
			<point x="408" y="702"/>
			<point x="427" y="692" type="curve"/>
			<point x="444" y="718" type="line"/>
			<point x="424" y="728"/>
			<point x="399" y="734"/>
			<point x="379" y="734" type="curve" smooth="yes"/>
			<point x="293" y="734"/>
			<point x="227" y="674"/>
			<point x="206" y="566" type="curve"/>
			<point x="96" y="0" type="line"/>
			<point x="122" y="0" type="line"/>
			<point x="135" y="44" type="line"/>
			<point x="137" y="44" type="line"/>
			<point x="176" y="10"/>
			<point x="226" y="-12"/>
		</contour>
		<contour>
			<point x="279" y="16" type="curve" smooth="yes"/>
			<point x="241" y="16"/>
			<point x="189" y="34"/>
			<point x="142" y="82" type="curve"/>
			<point x="199" y="378" type="line"/>
			<point x="270" y="432"/>
			<point x="332" y="462"/>
			<point x="382" y="462" type="curve" smooth="yes"/>
			<point x="500" y="462"/>
			<point x="526" y="368"/>
			<point x="502" y="246" type="curve" smooth="yes"/>
			<point x="476" y="112"/>
			<point x="383" y="16"/>
		</contour>
		<contour>
			<point name="belowLC" x="272" y="-20" type="move"/>
		</contour>
		<contour>
			<point name="aboveUC" x="270" y="730" type="move"/>
		</contour>
	</outline>
</glyph>
<glyph name="bracketleftwhite" format="1">
  <advance width="315"/>
  <outline>
    <contour>
      <point x="11" y="-152" type="line"/>
      <point x="213" y="-152" type="line"/>
      <point x="217" y="-131" type="line"/>
      <point x="98" y="-131" type="line"/>
      <point x="262" y="687" type="line"/>
      <point x="381" y="687" type="line"/>
      <point x="385" y="708" type="line"/>
      <point x="183" y="708" type="line"/>
    </contour>
    <contour>
      <point x="37" y="-131" type="line"/>
      <point x="201" y="687" type="line"/>
      <point x="239" y="687" type="line"/>
      <point x="76" y="-131" type="line"/>
    </contour>
  </outline>
</glyph>
<glyph name="brevecmb.cap" format="1">
	<outline>
		<contour>
			<point x="142" y="712" type="curve" smooth="yes"/>
			<point x="231" y="712"/>
			<point x="282" y="779"/>
			<point x="298" y="834" type="curve"/>
			<point x="272" y="838" type="line"/>
			<point x="254" y="786"/>
			<point x="214" y="738"/>
			<point x="148" y="738" type="curve" smooth="yes"/>
			<point x="81" y="738"/>
			<point x="57" y="786"/>
			<point x="60" y="838" type="curve"/>
			<point x="34" y="834" type="line"/>
			<point x="31" y="779"/>
			<point x="57" y="712"/>
		</contour>
		<contour>
			<point name="_aboveUC" x="136" y="680" type="move"/>
		</contour>
	</outline>
</glyph>
<glyph name="brevecmb.cyrcap" format="1">
  <advance width="0"/>
  <outline>
    <contour>
      <point x="142" y="706" type="curve" smooth="yes"/>
      <point x="225" y="706"/>
      <point x="266" y="768"/>
      <point x="284" y="818" type="curve"/>
      <point x="260" y="818" type="line"/>
      <point x="243" y="774"/>
      <point x="204" y="729"/>
      <point x="144" y="729" type="curve" smooth="yes"/>
      <point x="84" y="729"/>
      <point x="56" y="768"/>
      <point x="60" y="818" type="curve"/>
      <point x="36" y="818" type="line"/>
      <point x="30" y="768"/>
      <point x="59" y="706"/>
    </contour>
    <contour>
      <point x="136" y="680" type="move" name="_aboveUC"/>
    </contour>
  </outline>
</glyph>
<glyph name="breveinvertedcmb.cap" format="1">
  <advance width="0"/>
  <outline>
    <contour>
      <point x="32" y="712" type="line"/>
      <point x="50" y="764"/>
      <point x="91" y="812"/>
      <point x="158" y="812" type="curve" smooth="yes"/>
      <point x="225" y="812"/>
      <point x="248" y="764"/>
      <point x="244" y="712" type="curve"/>
      <point x="271" y="716" type="line"/>
      <point x="275" y="771"/>
      <point x="250" y="838"/>
      <point x="163" y="838" type="curve" smooth="yes"/>
      <point x="76" y="838"/>
      <point x="25" y="771"/>
      <point x="7" y="716" type="curve"/>
    </contour>
    <contour>
      <point x="133" y="680" type="move" name="_aboveUC"/>
    </contour>
  </outline>
</glyph>
<glyph name="breveinverteddoublecmb" format="1">
  <advance width="0"/>
  <outline>
    <contour>
      <point x="-331" y="562" type="line"/>
      <point x="-189" y="642"/>
      <point x="-27" y="684"/>
      <point x="133" y="684" type="curve" smooth="yes"/>
      <point x="293" y="684"/>
      <point x="439" y="642"/>
      <point x="549" y="562" type="curve"/>
      <point x="565" y="582" type="line"/>
      <point x="449" y="664"/>
      <point x="314" y="712"/>
      <point x="138" y="712" type="curve" smooth="yes"/>
      <point x="-38" y="712"/>
      <point x="-191" y="664"/>
      <point x="-339" y="582" type="curve"/>
    </contour>
  </outline>
</glyph>
<glyph name="bridgebelowcmb" format="1">
  <advance width="0"/>
  <outline>
    <contour>
      <point x="-161" y="-230" type="line"/>
      <point x="-135" y="-230" type="line"/>
      <point x="-112" y="-114" type="line"/>
      <point x="68" y="-114" type="line"/>
      <point x="45" y="-230" type="line"/>
      <point x="71" y="-230" type="line"/>
      <point x="99" y="-86" type="line"/>
      <point x="-133" y="-86" type="line"/>
    </contour>
    <contour>
      <point x="-4" y="-20" type="move" name="_belowLC"/>
    </contour>
  </outline>
</glyph>
<glyph name="bridgeinvertedbelowcmb" format="1">
  <advance width="0"/>
  <outline>
    <contour>
      <point x="-161" y="-234" type="line"/>
      <point x="71" y="-234" type="line"/>
      <point x="99" y="-90" type="line"/>
      <point x="73" y="-90" type="line"/>
      <point x="50" y="-206" type="line"/>
      <point x="-130" y="-206" type="line"/>
      <point x="-107" y="-90" type="line"/>
      <point x="-133" y="-90" type="line"/>
    </contour>
    <contour>
      <point x="-4" y="-20" type="move" name="_belowLC"/>
    </contour>
  </outline>
</glyph>
<glyph name="circumflexbelowcmb" format="1">
	<outline>
		<component base="circumflexcmb" xOffset="-156" yOffset="-794"/>
		<contour>
			<point name="_belowLC" x="-6" y="-20" type="move"/>
		</contour>
	</outline>
</glyph>
<glyph name="circumflexcmb.cap" format="1">
	<outline>
		<contour>
			<point x="28" y="710" type="line"/>
			<point x="160" y="812" type="line"/>
			<point x="164" y="812" type="line"/>
			<point x="258" y="712" type="line"/>
			<point x="274" y="726" type="line"/>
			<point x="178" y="840" type="line"/>
			<point x="150" y="840" type="line"/>
			<point x="14" y="726" type="line"/>
		</contour>
		<contour>
			<point name="_aboveUC" x="136" y="680" type="move"/>
		</contour>
	</outline>
</glyph>
<glyph name="clickalveolar" format="1">
  <advance width="254"/>
  <outline>
    <contour>
      <point x="71" y="332" type="line"/>
      <point x="313" y="332" type="line"/>
      <point x="318" y="360" type="line"/>
      <point x="154" y="360" type="line"/>
      <point x="75" y="356" type="line"/>
    </contour>
    <contour>
      <point x="41" y="182" type="line"/>
      <point x="283" y="182" type="line"/>
      <point x="289" y="210" type="line"/>
      <point x="125" y="210" type="line"/>
      <point x="46" y="206" type="line"/>
    </contour>
    <component base="bar" yxScale="0.194380309138" xOffset="24"/>
  </outline>
</glyph>
<glyph name="clickbilabial" format="1">
  <advance width="500"/>
  <outline>
    <contour>
      <point x="248" y="-12" type="curve" smooth="yes"/>
      <point x="364" y="-12"/>
      <point x="451" y="98"/>
      <point x="503" y="364" type="curve" smooth="yes"/>
      <point x="548" y="598"/>
      <point x="509" y="734"/>
      <point x="393" y="734" type="curve" smooth="yes"/>
      <point x="277" y="734"/>
      <point x="184" y="598"/>
      <point x="139" y="364" type="curve" smooth="yes"/>
      <point x="87" y="98"/>
      <point x="132" y="-12"/>
    </contour>
    <contour>
      <point x="253" y="16" type="curve" smooth="yes"/>
      <point x="165" y="16"/>
      <point x="122" y="114"/>
      <point x="171" y="364" type="curve" smooth="yes"/>
      <point x="214" y="586"/>
      <point x="299" y="706"/>
      <point x="387" y="706" type="curve" smooth="yes"/>
      <point x="475" y="706"/>
      <point x="514" y="586"/>
      <point x="471" y="364" type="curve" smooth="yes"/>
      <point x="422" y="114"/>
      <point x="341" y="16"/>
    </contour>
    <contour>
      <point x="314" y="330" type="curve" smooth="yes"/>
      <point x="332" y="330"/>
      <point x="351" y="344"/>
      <point x="355" y="364" type="curve" smooth="yes"/>
      <point x="359" y="386"/>
      <point x="345" y="398"/>
      <point x="327" y="398" type="curve" smooth="yes"/>
      <point x="309" y="398"/>
      <point x="291" y="386"/>
      <point x="287" y="364" type="curve" smooth="yes"/>
      <point x="283" y="344"/>
      <point x="296" y="330"/>
    </contour>
  </outline>
</glyph>
<glyph name="dezh" format="1">
  <advance width="838"/>
  <outline>
    <contour>
      <point x="548" y="-234" type="curve" smooth="yes"/>
      <point x="660" y="-234"/>
      <point x="778" y="-126"/>
      <point x="778" y="24" type="curve" smooth="yes"/>
      <point x="778" y="122"/>
      <point x="700" y="192"/>
      <point x="572" y="160" type="curve"/>
      <point x="852" y="460" type="line"/>
      <point x="854" y="478" type="line"/>
      <point x="462" y="478" type="line"/>
      <point x="456" y="452" type="line"/>
      <point x="810" y="452" type="line"/>
      <point x="522" y="144" type="line"/>
      <point x="535" y="122" type="line"/>
      <point x="562" y="134"/>
      <point x="583" y="142"/>
      <point x="613" y="142" type="curve" smooth="yes"/>
      <point x="704" y="142"/>
      <point x="750" y="102"/>
      <point x="750" y="18" type="curve" smooth="yes"/>
      <point x="750" y="-110"/>
      <point x="644" y="-208"/>
      <point x="550" y="-208" type="curve" smooth="yes"/>
      <point x="468" y="-208"/>
      <point x="422" y="-172"/>
      <point x="392" y="-140" type="curve"/>
      <point x="372" y="-158" type="line"/>
      <point x="404" y="-194"/>
      <point x="454" y="-234"/>
    </contour>
    <component base="d"/>
    <contour>
      <point x="419" y="730" type="move" name="aboveUC"/>
    </contour>
    <contour>
      <point x="419" y="-230" type="move" name="belowLC"/>
    </contour>
  </outline>
</glyph>
<glyph name="dhook" format="1">
  <advance width="540"/>
  <outline>
    <contour>
      <point x="250" y="-12" type="curve" smooth="yes"/>
      <point x="316" y="-12"/>
      <point x="377" y="24"/>
      <point x="424" y="64" type="curve"/>
      <point x="426" y="64" type="line"/>
      <point x="418" y="0" type="line"/>
      <point x="444" y="0" type="line"/>
      <point x="561" y="600" type="line" smooth="yes"/>
      <point x="573" y="662"/>
      <point x="598" y="708"/>
      <point x="646" y="708" type="curve" smooth="yes"/>
      <point x="662" y="708"/>
      <point x="674" y="704"/>
      <point x="684" y="700" type="curve"/>
      <point x="697" y="726" type="line"/>
      <point x="685" y="732"/>
      <point x="669" y="736"/>
      <point x="653" y="736" type="curve" smooth="yes"/>
      <point x="595" y="736"/>
      <point x="549" y="696"/>
      <point x="531" y="604" type="curve"/>
      <point x="500" y="430" type="line"/>
      <point x="457" y="468"/>
      <point x="421" y="490"/>
      <point x="363" y="490" type="curve" smooth="yes"/>
      <point x="247" y="490"/>
      <point x="130" y="392"/>
      <point x="100" y="238" type="curve" smooth="yes"/>
      <point x="69" y="76"/>
      <point x="130" y="-12"/>
    </contour>
    <contour>
      <point x="257" y="16" type="curve" smooth="yes"/>
      <point x="149" y="16"/>
      <point x="107" y="106"/>
      <point x="132" y="238" type="curve" smooth="yes"/>
      <point x="156" y="362"/>
      <point x="254" y="462"/>
      <point x="356" y="462" type="curve" smooth="yes"/>
      <point x="406" y="462"/>
      <point x="446" y="444"/>
      <point x="491" y="396" type="curve"/>
      <point x="433" y="100" type="line"/>
      <point x="369" y="46"/>
      <point x="313" y="16"/>
    </contour>
    <contour>
      <point x="288" y="-20" type="move" name="belowLC"/>
    </contour>
    <contour>
      <point x="270" y="730" type="move" name="aboveUC"/>
    </contour>
  </outline>
</glyph>
<glyph name="dialytikagravecmb" format="1">
  <advance width="0"/>
  <outline>
    <contour>
      <point x="19" y="604" type="curve" smooth="yes"/>
      <point x="37" y="604"/>
      <point x="52" y="616"/>
      <point x="55" y="634" type="curve" smooth="yes"/>
      <point x="59" y="652"/>
      <point x="49" y="664"/>
      <point x="31" y="664" type="curve" smooth="yes"/>
      <point x="13" y="664"/>
      <point x="-1" y="652"/>
      <point x="-5" y="634" type="curve" smooth="yes"/>
      <point x="-8" y="616"/>
      <point x="1" y="604"/>
    </contour>
    <contour>
      <point x="115" y="560" type="line"/>
      <point x="140" y="566" type="line"/>
      <point x="132" y="752" type="line"/>
      <point x="93" y="744" type="line"/>
    </contour>
    <contour>
      <point x="215" y="604" type="curve" smooth="yes"/>
      <point x="233" y="604"/>
      <point x="248" y="616"/>
      <point x="251" y="634" type="curve" smooth="yes"/>
      <point x="255" y="652"/>
      <point x="245" y="664"/>
      <point x="227" y="664" type="curve" smooth="yes"/>
      <point x="209" y="664"/>
      <point x="195" y="652"/>
      <point x="191" y="634" type="curve" smooth="yes"/>
      <point x="188" y="616"/>
      <point x="197" y="604"/>
    </contour>
    <contour>
      <point x="100" y="500" type="move" name="_aboveLC"/>
    </contour>
  </outline>
</glyph>
<glyph name="dieresiscmb.cap" format="1">
  <advance width="0"/>
  <outline>
    <contour>
      <point x="66" y="726" type="curve" smooth="yes"/>
      <point x="82" y="726"/>
      <point x="98" y="742"/>
      <point x="98" y="762" type="curve" smooth="yes"/>
      <point x="98" y="780"/>
      <point x="88" y="790"/>
      <point x="72" y="790" type="curve" smooth="yes"/>
      <point x="56" y="790"/>
      <point x="40" y="774"/>
      <point x="40" y="752" type="curve" smooth="yes"/>
      <point x="40" y="736"/>
      <point x="50" y="726"/>
    </contour>
    <contour>
      <point x="232" y="726" type="curve" smooth="yes"/>
      <point x="248" y="726"/>
      <point x="264" y="742"/>
      <point x="264" y="762" type="curve" smooth="yes"/>
      <point x="264" y="780"/>
      <point x="254" y="790"/>
      <point x="238" y="790" type="curve" smooth="yes"/>
      <point x="222" y="790"/>
      <point x="206" y="774"/>
      <point x="206" y="752" type="curve" smooth="yes"/>
      <point x="206" y="736"/>
      <point x="216" y="726"/>
    </contour>
    <contour>
      <point x="136" y="680" type="move" name="_aboveUC"/>
    </contour>
  </outline>
</glyph>
<glyph name="dieresistilde" format="1">
  <advance width="0"/>
  <outline>
    <contour>
      <point x="31" y="602" type="curve" smooth="yes"/>
      <point x="49" y="602"/>
      <point x="66" y="616"/>
      <point x="69" y="634" type="curve" smooth="yes"/>
      <point x="73" y="652"/>
      <point x="61" y="666"/>
      <point x="43" y="666" type="curve" smooth="yes"/>
      <point x="25" y="666"/>
      <point x="9" y="652"/>
      <point x="5" y="634" type="curve" smooth="yes"/>
      <point x="2" y="616"/>
      <point x="13" y="602"/>
    </contour>
    <contour>
      <point x="203" y="602" type="curve" smooth="yes"/>
      <point x="221" y="602"/>
      <point x="238" y="616"/>
      <point x="241" y="634" type="curve" smooth="yes"/>
      <point x="245" y="652"/>
      <point x="233" y="666"/>
      <point x="215" y="666" type="curve" smooth="yes"/>
      <point x="197" y="666"/>
      <point x="181" y="652"/>
      <point x="177" y="634" type="curve" smooth="yes"/>
      <point x="174" y="616"/>
      <point x="185" y="602"/>
    </contour>
    <contour>
      <point x="210" y="700" type="curve" smooth="yes"/>
      <point x="261" y="700"/>
      <point x="290" y="742"/>
      <point x="299" y="776" type="curve"/>
      <point x="275" y="778" type="line"/>
      <point x="264" y="744"/>
      <point x="242" y="726"/>
      <point x="215" y="726" type="curve" smooth="yes"/>
      <point x="157" y="726"/>
      <point x="152" y="780"/>
      <point x="78" y="780" type="curve" smooth="yes"/>
      <point x="27" y="780"/>
      <point x="-2" y="738"/>
      <point x="-11" y="704" type="curve"/>
      <point x="12" y="702" type="line"/>
      <point x="23" y="736"/>
      <point x="46" y="754"/>
      <point x="73" y="754" type="curve" smooth="yes"/>
      <point x="131" y="754"/>
      <point x="136" y="700"/>
    </contour>
    <contour>
      <point x="104" y="500" type="move" name="_aboveLC"/>
    </contour>
  </outline>
</glyph>
<glyph name="dieresistildecmb" format="1">
	<outline>
		<contour>
			<point x="31" y="602" type="curve" smooth="yes"/>
			<point x="49" y="602"/>
			<point x="66" y="616"/>
			<point x="69" y="634" type="curve" smooth="yes"/>
			<point x="73" y="652"/>
			<point x="61" y="666"/>
			<point x="43" y="666" type="curve" smooth="yes"/>
			<point x="25" y="666"/>
			<point x="9" y="652"/>
			<point x="5" y="634" type="curve" smooth="yes"/>
			<point x="2" y="616"/>
			<point x="13" y="602"/>
		</contour>
		<contour>
			<point x="203" y="602" type="curve" smooth="yes"/>
			<point x="221" y="602"/>
			<point x="238" y="616"/>
			<point x="241" y="634" type="curve" smooth="yes"/>
			<point x="245" y="652"/>
			<point x="233" y="666"/>
			<point x="215" y="666" type="curve" smooth="yes"/>
			<point x="197" y="666"/>
			<point x="181" y="652"/>
			<point x="177" y="634" type="curve" smooth="yes"/>
			<point x="174" y="616"/>
			<point x="185" y="602"/>
		</contour>
		<contour>
			<point x="210" y="700" type="curve" smooth="yes"/>
			<point x="261" y="700"/>
			<point x="290" y="742"/>
			<point x="299" y="776" type="curve"/>
			<point x="275" y="778" type="line"/>
			<point x="264" y="744"/>
			<point x="242" y="726"/>
			<point x="215" y="726" type="curve" smooth="yes"/>
			<point x="157" y="726"/>
			<point x="152" y="780"/>
			<point x="78" y="780" type="curve" smooth="yes"/>
			<point x="27" y="780"/>
			<point x="-2" y="738"/>
			<point x="-11" y="704" type="curve"/>
			<point x="12" y="702" type="line"/>
			<point x="23" y="736"/>
			<point x="46" y="754"/>
			<point x="73" y="754" type="curve" smooth="yes"/>
			<point x="131" y="754"/>
			<point x="136" y="700"/>
		</contour>
		<contour>
			<point name="_aboveLC" x="100" y="500" type="move"/>
		</contour>
	</outline>
</glyph>
<glyph name="dotlessi" format="1">
	<advance width="214"/>
	<outline>
		<contour>
			<point x="44" y="0" type="line"/>
			<point x="72" y="0" type="line"/>
			<point x="168" y="478" type="line"/>
			<point x="140" y="478" type="line"/>
		</contour>
		<contour>
			<point name="aboveLC" x="160" y="500" type="move"/>
		</contour>
		<contour>
			<point name="belowLC" x="60" y="-20" type="move"/>
		</contour>
		<contour>
			<point name="ogonekLC" x="60" y="0" type="move"/>
		</contour>
		<contour>
			<point name="baseLC" x="107" y="0" type="move"/>
		</contour>
	</outline>
</glyph>
<glyph name="dotlessjstroke" format="1">
  <advance width="230"/>
  <outline>
    <contour>
      <point x="4" y="238" type="line"/>
      <point x="222" y="238" type="line"/>
      <point x="227" y="266" type="line"/>
      <point x="105" y="266" type="line"/>
      <point x="9" y="262" type="line"/>
    </contour>
    <component base="dotlessj"/>
    <contour>
      <point x="116" y="500" type="move" name="aboveLC"/>
    </contour>
  </outline>
</glyph>
<glyph name="dotlessjstrokehook" format="1">
  <advance width="230"/>
  <outline>
    <contour>
      <point x="50" y="238" type="line"/>
      <point x="268" y="238" type="line"/>
      <point x="274" y="266" type="line"/>
      <point x="152" y="266" type="line"/>
      <point x="55" y="262" type="line"/>
    </contour>
    <component base="esh" yxScale="0.194380309138" xOffset="4"/>
  </outline>
</glyph>
<glyph name="dtail" format="1">
  <advance width="540"/>
  <outline>
    <contour>
      <point x="467" y="-180" type="curve" smooth="yes"/>
      <point x="483" y="-180"/>
      <point x="506" y="-174"/>
      <point x="517" y="-168" type="curve"/>
      <point x="514" y="-142" type="line"/>
      <point x="504" y="-146"/>
      <point x="486" y="-152"/>
      <point x="470" y="-152" type="curve" smooth="yes"/>
      <point x="426" y="-152"/>
      <point x="423" y="-110"/>
      <point x="434" y="-50" type="curve"/>
      <point x="587" y="734" type="line"/>
      <point x="557" y="734" type="line"/>
      <point x="515" y="520" type="line"/>
      <point x="500" y="430" type="line"/>
      <point x="457" y="468"/>
      <point x="421" y="490"/>
      <point x="363" y="490" type="curve" smooth="yes"/>
      <point x="247" y="490"/>
      <point x="130" y="392"/>
      <point x="100" y="238" type="curve" smooth="yes"/>
      <point x="69" y="76"/>
      <point x="130" y="-12"/>
      <point x="250" y="-12" type="curve" smooth="yes"/>
      <point x="316" y="-12"/>
      <point x="377" y="24"/>
      <point x="429" y="66" type="curve"/>
      <point x="404" y="-54" type="line"/>
      <point x="386" y="-144"/>
      <point x="407" y="-180"/>
    </contour>
    <contour>
      <point x="257" y="16" type="curve" smooth="yes"/>
      <point x="149" y="16"/>
      <point x="107" y="106"/>
      <point x="132" y="238" type="curve" smooth="yes"/>
      <point x="156" y="362"/>
      <point x="254" y="462"/>
      <point x="356" y="462" type="curve" smooth="yes"/>
      <point x="406" y="462"/>
      <point x="446" y="444"/>
      <point x="491" y="396" type="curve"/>
      <point x="433" y="100" type="line"/>
      <point x="369" y="46"/>
      <point x="313" y="16"/>
    </contour>
  </outline>
</glyph>
<glyph name="dzhe" format="1">
  <advance width="504"/>
  <outline>
    <contour>
      <point x="178" y="-172" type="line"/>
      <point x="208" y="-50" type="line"/>
      <point x="186" y="-50" type="line"/>
      <point x="148" y="-172" type="line"/>
    </contour>
    <component base="u"/>
  </outline>
</glyph>
<glyph name="e" format="1">
  <advance width="468"/>
  <outline>
    <contour>
      <point x="224" y="-12" type="curve" smooth="yes"/>
      <point x="276" y="-12"/>
      <point x="326" y="12"/>
      <point x="364" y="40" type="curve"/>
      <point x="350" y="62" type="line"/>
      <point x="314" y="36"/>
      <point x="270" y="14"/>
      <point x="226" y="14" type="curve" smooth="yes"/>
      <point x="130" y="14"/>
      <point x="72" y="70"/>
      <point x="72" y="190" type="curve" smooth="yes"/>
      <point x="72" y="348"/>
      <point x="186" y="464"/>
      <point x="288" y="464" type="curve" smooth="yes"/>
      <point x="374" y="464"/>
      <point x="404" y="396"/>
      <point x="404" y="328" type="curve" smooth="yes"/>
      <point x="404" y="306"/>
      <point x="402" y="288"/>
      <point x="398" y="268" type="curve"/>
      <point x="62" y="268" type="line"/>
      <point x="62" y="242" type="line"/>
      <point x="420" y="242" type="line"/>
      <point x="426" y="262"/>
      <point x="432" y="290"/>
      <point x="432" y="322" type="curve" smooth="yes"/>
      <point x="432" y="420"/>
      <point x="392" y="490"/>
      <point x="290" y="490" type="curve" smooth="yes"/>
      <point x="174" y="490"/>
      <point x="44" y="368"/>
      <point x="44" y="184" type="curve" smooth="yes"/>
      <point x="44" y="56"/>
      <point x="114" y="-12"/>
    </contour>
    <contour>
      <point x="290" y="500" type="move" name="aboveLC"/>
    </contour>
    <contour>
      <point x="200" y="-20" type="move" name="belowLC"/>
    </contour>
    <contour>
      <point x="282" y="0" type="move" name="ogonekLC"/>
    </contour>
    <contour>
      <point x="210" y="0" type="move" name="baseLC"/>
    </contour>
  </outline>
</glyph>
<glyph name="eacute" format="1">
	<advance width="468"/>
	<outline>
		<component base="e"/>
		<component base="acutecmb" xOffset="190"/>
		<contour>
			<point name="ogonekLC" x="282" y="0" type="move"/>
		</contour>
	</outline>
</glyph>
<glyph name="eight.cap" format="1">
  <advance width="456"/>
  <outline>
    <contour>
      <point x="212" y="-12" type="curve" smooth="yes"/>
      <point x="320" y="-12"/>
      <point x="412" y="58"/>
      <point x="412" y="172" type="curve" smooth="yes"/>
      <point x="412.0" y="246.929577465"/>
      <point x="354.25859127" y="301.822218502"/>
      <point x="322" y="324" type="curve"/>
      <point x="322" y="328" type="line"/>
      <point x="398.198210792" y="372.937406365"/>
      <point x="454.0" y="431.212765957"/>
      <point x="454" y="526" type="curve" smooth="yes"/>
      <point x="454" y="622"/>
      <point x="386" y="672"/>
      <point x="308" y="672" type="curve" smooth="yes"/>
      <point x="218" y="672"/>
      <point x="138" y="610"/>
      <point x="138" y="506" type="curve" smooth="yes"/>
      <point x="138.0" y="447.64516129"/>
      <point x="154.532823534" y="409.493817642"/>
      <point x="194" y="372" type="curve"/>
      <point x="194" y="368" type="line"/>
      <point x="112.428969411" y="329.25376047"/>
      <point x="34.0" y="263.098039216"/>
      <point x="34" y="154" type="curve" smooth="yes"/>
      <point x="34" y="44"/>
      <point x="120" y="-12"/>
    </contour>
    <contour>
      <point x="298" y="340" type="curve"/>
      <point x="215.765573167" y="378.108636825"/>
      <point x="166.0" y="420.810126582"/>
      <point x="166" y="508" type="curve" smooth="yes"/>
      <point x="166" y="594"/>
      <point x="234" y="646"/>
      <point x="306" y="646" type="curve" smooth="yes"/>
      <point x="368" y="646"/>
      <point x="426" y="604"/>
      <point x="426" y="524" type="curve" smooth="yes"/>
      <point x="426.0" y="439.402298851"/>
      <point x="363.407196906" y="377.096619141"/>
    </contour>
    <contour>
      <point x="212" y="14" type="curve" smooth="yes"/>
      <point x="136" y="14"/>
      <point x="62" y="62"/>
      <point x="62" y="156" type="curve" smooth="yes"/>
      <point x="62.0" y="250.787234043"/>
      <point x="124.041137531" y="306.976049164"/>
      <point x="214" y="354" type="curve"/>
      <point x="300.311525024" y="307.833370336"/>
      <point x="384.0" y="263.168539326"/>
      <point x="384" y="166" type="curve" smooth="yes"/>
      <point x="384" y="70"/>
      <point x="298" y="14"/>
    </contour>
  </outline>
</glyph>
<glyph name="el" format="1">
  <advance width="496"/>
  <outline>
    <contour>
      <point x="44" y="-12" type="curve" smooth="yes"/>
      <point x="96" y="-12"/>
      <point x="139" y="36"/>
      <point x="172" y="142" type="curve" smooth="yes"/>
      <point x="204" y="245"/>
      <point x="235" y="347"/>
      <point x="267" y="450" type="curve"/>
      <point x="457" y="450" type="line"/>
      <point x="370" y="0" type="line"/>
      <point x="400" y="0" type="line"/>
      <point x="493" y="478" type="line"/>
      <point x="249" y="478" type="line"/>
      <point x="214" y="367"/>
      <point x="179" y="257"/>
      <point x="144" y="146" type="curve" smooth="yes"/>
      <point x="118" y="60"/>
      <point x="86" y="20"/>
      <point x="46" y="20" type="curve" smooth="yes"/>
      <point x="38" y="20"/>
      <point x="32" y="22"/>
      <point x="27" y="24" type="curve"/>
      <point x="13" y="-6" type="line"/>
      <point x="22" y="-10"/>
      <point x="30" y="-12"/>
    </contour>
  </outline>
</glyph>
<glyph name="em" format="1">
	<advance width="776"/>
	<outline>
		<component base="m"/>
		<contour>
			<point name="aboveLC" x="460" y="500" type="move"/>
		</contour>
	</outline>
</glyph>
<glyph name="emdash.sups" format="1">
  <advance width="561"/>
  <outline>
    <contour>
      <point x="75" y="594" type="line"/>
      <point x="557" y="594" type="line"/>
      <point x="562" y="617" type="line"/>
      <point x="80" y="617" type="line"/>
    </contour>
  </outline>
</glyph>
<glyph name="endash.sups" format="1">
  <advance width="347"/>
  <outline>
    <contour>
      <point x="75" y="594" type="line"/>
      <point x="343" y="594" type="line"/>
      <point x="348" y="617" type="line"/>
      <point x="80" y="617" type="line"/>
    </contour>
  </outline>
</glyph>
<glyph name="eopen" format="1">
  <advance width="422"/>
  <outline>
    <contour>
      <point x="232" y="-12" type="curve" smooth="yes"/>
      <point x="300" y="-12"/>
      <point x="349" y="6"/>
      <point x="409" y="47" type="curve"/>
      <point x="397" y="71" type="line"/>
      <point x="340" y="32"/>
      <point x="297" y="16"/>
      <point x="241" y="16" type="curve" smooth="yes"/>
      <point x="151" y="16"/>
      <point x="98" y="60"/>
      <point x="111" y="129" type="curve" smooth="yes"/>
      <point x="124" y="197"/>
      <point x="192" y="238"/>
      <point x="294" y="238" type="curve"/>
      <point x="352" y="238" type="line"/>
      <point x="358" y="266" type="line"/>
      <point x="314" y="266" type="line"/>
      <point x="211" y="266"/>
      <point x="174" y="310"/>
      <point x="185" y="366" type="curve" smooth="yes"/>
      <point x="198" y="432"/>
      <point x="261" y="462"/>
      <point x="326" y="462" type="curve" smooth="yes"/>
      <point x="374" y="462"/>
      <point x="407" y="444"/>
      <point x="441" y="416" type="curve"/>
      <point x="461" y="439" type="line"/>
      <point x="430" y="470"/>
      <point x="391" y="490"/>
      <point x="333" y="490" type="curve" smooth="yes"/>
      <point x="249" y="490"/>
      <point x="169" y="448"/>
      <point x="154" y="368" type="curve" smooth="yes"/>
      <point x="144" y="318"/>
      <point x="168" y="276"/>
      <point x="214" y="256" type="curve"/>
      <point x="213" y="252" type="line"/>
      <point x="158" y="238"/>
      <point x="93" y="200"/>
      <point x="79" y="128" type="curve" smooth="yes"/>
      <point x="63" y="46"/>
      <point x="124" y="-12"/>
    </contour>
    <contour>
      <point x="328" y="500" type="move" name="aboveLC"/>
    </contour>
    <contour>
      <point x="242" y="-20" type="move" name="belowLC"/>
    </contour>
    <contour>
      <point x="211" y="0" type="move" name="baseLC"/>
    </contour>
  </outline>
</glyph>
<glyph name="eopenreversedclosed" format="1">
  <advance width="530"/>
  <outline>
    <contour>
      <point x="248" y="-12" type="curve" smooth="yes"/>
      <point x="376" y="-12"/>
      <point x="490" y="74"/>
      <point x="522" y="238" type="curve" smooth="yes"/>
      <point x="555" y="404"/>
      <point x="471" y="490"/>
      <point x="339" y="490" type="curve" smooth="yes"/>
      <point x="247" y="490"/>
      <point x="169" y="448"/>
      <point x="154" y="368" type="curve" smooth="yes"/>
      <point x="144" y="318"/>
      <point x="168" y="276"/>
      <point x="214" y="256" type="curve"/>
      <point x="213" y="252" type="line"/>
      <point x="158" y="238"/>
      <point x="93" y="200"/>
      <point x="79" y="128" type="curve" smooth="yes"/>
      <point x="63" y="46"/>
      <point x="128" y="-12"/>
    </contour>
    <contour>
      <point x="255" y="16" type="curve" smooth="yes"/>
      <point x="153" y="16"/>
      <point x="98" y="60"/>
      <point x="111" y="129" type="curve" smooth="yes"/>
      <point x="124" y="197"/>
      <point x="192" y="238"/>
      <point x="294" y="238" type="curve" smooth="yes"/>
      <point x="332" y="238" type="line"/>
      <point x="338" y="266" type="line"/>
      <point x="314" y="266" type="line" smooth="yes"/>
      <point x="211" y="266"/>
      <point x="174" y="310"/>
      <point x="185" y="366" type="curve" smooth="yes"/>
      <point x="198" y="432"/>
      <point x="260" y="462"/>
      <point x="334" y="462" type="curve" smooth="yes"/>
      <point x="454" y="462"/>
      <point x="517" y="376"/>
      <point x="490" y="238" type="curve" smooth="yes"/>
      <point x="463" y="100"/>
      <point x="371" y="16"/>
    </contour>
    <contour>
      <point x="348" y="500" type="move" name="aboveLC"/>
    </contour>
    <contour>
      <point x="266" y="-20" type="move" name="belowLC"/>
    </contour>
  </outline>
</glyph>
<glyph name="ereversed" format="1">
	<advance width="478"/>
	<outline>
		<contour>
			<point x="208" y="-12" type="curve" smooth="yes"/>
			<point x="332" y="-12"/>
			<point x="440" y="82"/>
			<point x="470" y="238" type="curve" smooth="yes"/>
			<point x="501" y="394"/>
			<point x="437" y="490"/>
			<point x="323" y="490" type="curve" smooth="yes"/>
			<point x="213" y="490"/>
			<point x="118" y="412"/>
			<point x="90" y="270" type="curve" smooth="yes"/>
			<point x="89" y="260"/>
			<point x="87" y="250"/>
			<point x="86" y="238" type="curve"/>
			<point x="438" y="238" type="line"/>
			<point x="413" y="110"/>
			<point x="329" y="16"/>
			<point x="211" y="16" type="curve" smooth="yes"/>
			<point x="157" y="16"/>
			<point x="115" y="34"/>
			<point x="84" y="60" type="curve"/>
			<point x="65" y="34" type="line"/>
			<point x="96" y="12"/>
			<point x="136" y="-12"/>
		</contour>
		<contour>
			<point x="120" y="266" type="line"/>
			<point x="145" y="398"/>
			<point x="228" y="462"/>
			<point x="318" y="462" type="curve" smooth="yes"/>
			<point x="412" y="462"/>
			<point x="457" y="388"/>
			<point x="444" y="266" type="curve"/>
		</contour>
		<contour>
			<point name="aboveLC" x="328" y="500" type="move"/>
		</contour>
		<contour>
			<point name="belowLC" x="240" y="-20" type="move"/>
		</contour>
	</outline>
</glyph>
<glyph name="es" format="1">
	<advance width="428"/>
	<outline>
		<component base="c"/>
		<contour>
			<point name="aboveLC" x="290" y="500" type="move"/>
		</contour>
	</outline>
</glyph>
<glyph name="esh" format="1">
  <advance width="222"/>
  <outline>
    <contour>
      <point x="-17" y="-234" type="curve" smooth="yes"/>
      <point x="49" y="-234"/>
      <point x="88" y="-194"/>
      <point x="106" y="-102" type="curve" smooth="yes"/>
      <point x="243" y="600" type="line" smooth="yes"/>
      <point x="255" y="662"/>
      <point x="276" y="708"/>
      <point x="340" y="708" type="curve" smooth="yes"/>
      <point x="356" y="708"/>
      <point x="370" y="702"/>
      <point x="380" y="698" type="curve"/>
      <point x="393" y="724" type="line"/>
      <point x="382" y="730"/>
      <point x="364" y="736"/>
      <point x="347" y="736" type="curve" smooth="yes"/>
      <point x="274" y="736"/>
      <point x="231" y="696"/>
      <point x="213" y="604" type="curve" smooth="yes"/>
      <point x="77" y="-98" type="line"/>
      <point x="65" y="-160"/>
      <point x="46" y="-206"/>
      <point x="-10" y="-206" type="curve" smooth="yes"/>
      <point x="-30" y="-206"/>
      <point x="-49" y="-200"/>
      <point x="-60" y="-196" type="curve"/>
      <point x="-73" y="-222" type="line"/>
      <point x="-60" y="-228"/>
      <point x="-37" y="-234"/>
    </contour>
  </outline>
</glyph>
<glyph name="etaiotasub" format="1">
  <advance width="504"/>
  <outline>
    <component base="eta"/>
    <component base="iotasubscriptcmb" xOffset="66" yOffset="10"/>
    <contour>
      <point x="310" y="500" type="move" name="aboveLC"/>
    </contour>
  </outline>
</glyph>
<glyph name="ezh" format="1">
  <advance width="396"/>
  <outline>
    <contour>
      <point x="145" y="-234" type="curve" smooth="yes"/>
      <point x="240" y="-234"/>
      <point x="349" y="-158"/>
      <point x="376" y="-22" type="curve" smooth="yes"/>
      <point x="401" y="106"/>
      <point x="324" y="194"/>
      <point x="171" y="162" type="curve"/>
      <point x="450" y="462" type="line"/>
      <point x="453" y="478" type="line"/>
      <point x="141" y="478" type="line"/>
      <point x="135" y="450" type="line"/>
      <point x="407" y="450" type="line"/>
      <point x="124" y="146" type="line"/>
      <point x="139" y="120" type="line"/>
      <point x="166" y="132"/>
      <point x="181" y="140"/>
      <point x="211" y="140" type="curve" smooth="yes"/>
      <point x="319" y="140"/>
      <point x="363" y="77"/>
      <point x="343" y="-24" type="curve" smooth="yes"/>
      <point x="322" y="-132"/>
      <point x="235" y="-206"/>
      <point x="152" y="-206" type="curve" smooth="yes"/>
      <point x="65" y="-206"/>
      <point x="25" y="-172"/>
      <point x="-5" y="-137" type="curve"/>
      <point x="-29" y="-159" type="line"/>
      <point x="2" y="-194"/>
      <point x="48" y="-234"/>
    </contour>
    <contour>
      <point x="274" y="515" type="move" name="aboveLC"/>
    </contour>
  </outline>
</glyph>
<glyph name="f" format="1">
  <advance width="246"/>
  <outline>
    <contour>
      <point x="48" y="0" type="line"/>
      <point x="76" y="0" type="line"/>
      <point x="166" y="452" type="line"/>
      <point x="274" y="452" type="line"/>
      <point x="280" y="478" type="line"/>
      <point x="172" y="478" type="line"/>
      <point x="196" y="596" type="line" smooth="yes"/>
      <point x="210" y="664"/>
      <point x="242" y="708"/>
      <point x="290" y="708" type="curve" smooth="yes"/>
      <point x="316" y="708"/>
      <point x="332" y="700"/>
      <point x="348" y="690" type="curve"/>
      <point x="362" y="712" type="line"/>
      <point x="344" y="724"/>
      <point x="324" y="734"/>
      <point x="292" y="734" type="curve" smooth="yes"/>
      <point x="230" y="734"/>
      <point x="187" y="690"/>
      <point x="168" y="596" type="curve" smooth="yes"/>
      <point x="144" y="478" type="line"/>
      <point x="80" y="474" type="line"/>
      <point x="76" y="452" type="line"/>
      <point x="138" y="452" type="line"/>
    </contour>
    <contour>
      <point x="308" y="740" type="move" name="aboveLC"/>
    </contour>
    <contour>
      <point x="70" y="-20" type="move" name="belowLC"/>
    </contour>
  </outline>
</glyph>
<glyph name="four.cap" format="1">
  <advance width="456"/>
  <outline>
    <contour>
      <point x="276" y="0" type="line"/>
      <point x="315" y="194" type="line"/>
      <point x="406" y="194" type="line"/>
      <point x="412" y="220" type="line"/>
      <point x="320" y="220" type="line"/>
      <point x="408" y="660" type="line"/>
      <point x="388" y="660" type="line"/>
      <point x="10" y="210" type="line"/>
      <point x="8" y="194" type="line"/>
      <point x="287" y="194" type="line"/>
      <point x="248" y="0" type="line"/>
    </contour>
    <contour>
      <point x="52" y="220" type="line"/>
      <point x="290" y="508" type="line" smooth="yes"/>
      <point x="314" y="537"/>
      <point x="341.635129731" y="569.530881083"/>
      <point x="370" y="606" type="curve"/>
      <point x="374" y="606" type="line"/>
      <point x="364" y="564"/>
      <point x="352" y="521"/>
      <point x="346" y="490" type="curve" smooth="yes"/>
      <point x="292" y="220" type="line"/>
    </contour>
  </outline>
</glyph>
<glyph name="g.a" format="1">
	<advance width="518"/>
	<outline>
		<component base="gscript"/>
		<contour>
			<point name="aboveLC" x="300" y="500" type="move"/>
		</contour>
		<contour>
			<point name="belowLC" x="170" y="-230" type="move"/>
		</contour>
	</outline>
</glyph>
<glyph name="ghook" format="1">
  <advance width="540"/>
  <outline>
    <contour>
      <point x="213" y="-234" type="curve" smooth="yes"/>
      <point x="331" y="-234"/>
      <point x="413" y="-160"/>
      <point x="435" y="-48" type="curve" smooth="yes"/>
      <point x="536" y="474" type="line" smooth="yes"/>
      <point x="548" y="536"/>
      <point x="573" y="582"/>
      <point x="621" y="582" type="curve" smooth="yes"/>
      <point x="637" y="582"/>
      <point x="649" y="578"/>
      <point x="660" y="574" type="curve"/>
      <point x="673" y="600" type="line"/>
      <point x="661" y="606"/>
      <point x="645" y="610"/>
      <point x="629" y="610" type="curve" smooth="yes"/>
      <point x="571" y="610"/>
      <point x="525" y="570"/>
      <point x="507" y="478" type="curve"/>
      <point x="500" y="430" type="line"/>
      <point x="457" y="468"/>
      <point x="421" y="490"/>
      <point x="363" y="490" type="curve" smooth="yes"/>
      <point x="247" y="490"/>
      <point x="131" y="396"/>
      <point x="101" y="244" type="curve" smooth="yes"/>
      <point x="70" y="84"/>
      <point x="132" y="-2"/>
      <point x="252" y="-2" type="curve" smooth="yes"/>
      <point x="318" y="-2"/>
      <point x="381" y="35"/>
      <point x="429" y="76" type="curve"/>
      <point x="406" y="-40" type="line" smooth="yes"/>
      <point x="386" y="-144"/>
      <point x="320" y="-207"/>
      <point x="218" y="-207" type="curve" smooth="yes"/>
      <point x="166" y="-207"/>
      <point x="119" y="-192"/>
      <point x="78" y="-156" type="curve"/>
      <point x="57" y="-182" type="line"/>
      <point x="96" y="-214"/>
      <point x="147" y="-234"/>
    </contour>
    <contour>
      <point x="259" y="26" type="curve" smooth="yes"/>
      <point x="151" y="26"/>
      <point x="108" y="114"/>
      <point x="133" y="244" type="curve" smooth="yes"/>
      <point x="157" y="366"/>
      <point x="254" y="462"/>
      <point x="356" y="462" type="curve" smooth="yes"/>
      <point x="406" y="462"/>
      <point x="446" y="444"/>
      <point x="491" y="396" type="curve"/>
      <point x="435" y="110" type="line"/>
      <point x="371" y="56"/>
      <point x="315" y="26"/>
    </contour>
    <contour>
      <point x="372" y="500" type="move" name="aboveLC"/>
    </contour>
    <contour>
      <point x="270" y="-230" type="move" name="belowLC"/>
    </contour>
  </outline>
</glyph>
<glyph name="glottalstop" format="1">
  <advance width="392"/>
  <outline>
    <contour>
      <point x="160" y="0" type="line"/>
      <point x="190" y="0" type="line"/>
      <point x="250" y="308" type="line"/>
      <point x="366" y="370"/>
      <point x="454" y="434"/>
      <point x="477" y="552" type="curve" smooth="yes"/>
      <point x="500" y="670"/>
      <point x="433" y="734"/>
      <point x="327" y="734" type="curve" smooth="yes"/>
      <point x="235" y="734"/>
      <point x="172" y="688"/>
      <point x="128" y="648" type="curve"/>
      <point x="144" y="626" type="line"/>
      <point x="185" y="666"/>
      <point x="241" y="706"/>
      <point x="323" y="706" type="curve" smooth="yes"/>
      <point x="421" y="706"/>
      <point x="463" y="644"/>
      <point x="446" y="554" type="curve" smooth="yes"/>
      <point x="426" y="454"/>
      <point x="354" y="392"/>
      <point x="224" y="330" type="curve"/>
    </contour>
    <contour>
      <point x="196" y="730" type="move" name="aboveUC"/>
    </contour>
    <contour>
      <point x="196" y="-20" type="move" name="belowLC"/>
    </contour>
  </outline>
</glyph>
<glyph name="glottalstopreversed" format="1">
  <advance width="392"/>
  <outline>
    <contour>
      <point x="202" y="0" type="line"/>
      <point x="232" y="0" type="line"/>
      <point x="296" y="330" type="line"/>
      <point x="190" y="392"/>
      <point x="142" y="454"/>
      <point x="162" y="554" type="curve" smooth="yes"/>
      <point x="179" y="644"/>
      <point x="249" y="706"/>
      <point x="353" y="706" type="curve" smooth="yes"/>
      <point x="430" y="706"/>
      <point x="467" y="666"/>
      <point x="492" y="626" type="curve"/>
      <point x="516" y="648" type="line"/>
      <point x="490" y="688"/>
      <point x="448" y="734"/>
      <point x="361" y="734" type="curve" smooth="yes"/>
      <point x="249" y="734"/>
      <point x="152" y="670"/>
      <point x="129" y="552" type="curve" smooth="yes"/>
      <point x="106" y="434"/>
      <point x="170" y="370"/>
      <point x="262" y="308" type="curve"/>
    </contour>
  </outline>
</glyph>
<glyph name="glottalstopstroke" format="1">
	<advance width="412"/>
	<outline>
		<contour>
			<point x="170" y="0" type="line"/>
			<point x="200" y="0" type="line"/>
			<point x="259" y="302" type="line"/>
			<point x="451" y="302" type="line"/>
			<point x="456" y="330" type="line"/>
			<point x="300" y="330" type="line"/>
			<point x="397" y="385"/>
			<point x="473" y="458"/>
			<point x="491" y="552" type="curve" smooth="yes"/>
			<point x="514" y="670"/>
			<point x="447" y="734"/>
			<point x="341" y="734" type="curve" smooth="yes"/>
			<point x="249" y="734"/>
			<point x="186" y="688"/>
			<point x="142" y="648" type="curve"/>
			<point x="158" y="626" type="line"/>
			<point x="199" y="666"/>
			<point x="255" y="706"/>
			<point x="337" y="706" type="curve" smooth="yes"/>
			<point x="435" y="706"/>
			<point x="477" y="644"/>
			<point x="460" y="554" type="curve" smooth="yes"/>
			<point x="442" y="464"/>
			<point x="368" y="392"/>
			<point x="244" y="330" type="curve"/>
			<point x="144" y="330" type="line"/>
			<point x="67" y="326" type="line"/>
			<point x="63" y="302" type="line"/>
			<point x="229" y="302" type="line"/>
		</contour>
		<contour>
			<point name="aboveUC" x="206" y="730" type="move"/>
		</contour>
		<contour>
			<point name="belowLC" x="206" y="-20" type="move"/>
		</contour>
	</outline>
</glyph>
<glyph name="glottalstopstrokereversed" format="1">
	<advance width="412"/>
	<outline>
		<contour>
			<point x="212" y="0" type="line"/>
			<point x="242" y="0" type="line"/>
			<point x="301" y="302" type="line"/>
			<point x="467" y="302" type="line"/>
			<point x="471" y="326" type="line"/>
			<point x="396" y="330" type="line"/>
			<point x="296" y="330" type="line"/>
			<point x="196" y="392"/>
			<point x="150" y="464"/>
			<point x="168" y="554" type="curve" smooth="yes"/>
			<point x="185" y="644"/>
			<point x="255" y="706"/>
			<point x="359" y="706" type="curve" smooth="yes"/>
			<point x="436" y="706"/>
			<point x="473" y="666"/>
			<point x="498" y="626" type="curve"/>
			<point x="522" y="648" type="line"/>
			<point x="496" y="688"/>
			<point x="454" y="734"/>
			<point x="367" y="734" type="curve" smooth="yes"/>
			<point x="255" y="734"/>
			<point x="158" y="670"/>
			<point x="135" y="552" type="curve" smooth="yes"/>
			<point x="117" y="458"/>
			<point x="165" y="385"/>
			<point x="240" y="330" type="curve"/>
			<point x="84" y="330" type="line"/>
			<point x="79" y="302" type="line"/>
			<point x="271" y="302" type="line"/>
		</contour>
		<contour>
			<point name="aboveUC" x="206" y="730" type="move"/>
		</contour>
		<contour>
			<point name="belowLC" x="206" y="-20" type="move"/>
		</contour>
	</outline>
</glyph>
<glyph name="gsmall" format="1">
  <advance width="482"/>
  <outline>
    <contour>
      <point x="272" y="-12" type="curve" smooth="yes"/>
      <point x="340" y="-12"/>
      <point x="397" y="15"/>
      <point x="435" y="46" type="curve"/>
      <point x="471" y="234" type="line"/>
      <point x="313" y="234" type="line"/>
      <point x="308" y="206" type="line"/>
      <point x="436" y="206" type="line"/>
      <point x="407" y="59" type="line"/>
      <point x="377" y="35"/>
      <point x="329" y="16"/>
      <point x="280" y="16" type="curve" smooth="yes"/>
      <point x="163" y="16"/>
      <point x="104" y="102"/>
      <point x="131" y="242" type="curve" smooth="yes"/>
      <point x="157" y="376"/>
      <point x="256" y="462"/>
      <point x="370" y="462" type="curve" smooth="yes"/>
      <point x="427" y="462"/>
      <point x="461" y="436"/>
      <point x="481" y="408" type="curve"/>
      <point x="506" y="430" type="line"/>
      <point x="483" y="458"/>
      <point x="444" y="490"/>
      <point x="375" y="490" type="curve" smooth="yes"/>
      <point x="240" y="490"/>
      <point x="130" y="393"/>
      <point x="101" y="242" type="curve" smooth="yes"/>
      <point x="70" y="84"/>
      <point x="141" y="-12"/>
    </contour>
    <contour>
      <point x="356" y="500" type="move" name="aboveLC"/>
    </contour>
    <contour>
      <point x="286" y="-20" type="move" name="belowLC"/>
    </contour>
  </outline>
</glyph>
<glyph name="horncmb" format="1">
  <advance width="0"/>
  <outline>
    <contour>
      <point x="84" y="440" type="line"/>
      <point x="158" y="452"/>
      <point x="218" y="492"/>
      <point x="230" y="558" type="curve" smooth="yes"/>
      <point x="236" y="585"/>
      <point x="232" y="599"/>
      <point x="226" y="626" type="curve"/>
      <point x="195" y="610" type="line"/>
      <point x="200" y="588"/>
      <point x="202" y="574"/>
      <point x="198" y="556" type="curve" smooth="yes"/>
      <point x="190" y="512"/>
      <point x="153" y="476"/>
      <point x="83" y="466" type="curve"/>
    </contour>
    <contour>
      <point x="93" y="478" type="move" name="_hornLC"/>
    </contour>
  </outline>
</glyph>
<glyph name="hturned" format="1">
	<advance width="504"/>
	<outline>
		<contour>
			<point x="294" y="-222" type="line"/>
			<point x="322" y="-222" type="line"/>
			<point x="462" y="478" type="line"/>
			<point x="434" y="478" type="line"/>
			<point x="362" y="120" type="line"/>
			<point x="286" y="46"/>
			<point x="226" y="14"/>
			<point x="182" y="14" type="curve" smooth="yes"/>
			<point x="118" y="14"/>
			<point x="92" y="46"/>
			<point x="92" y="108" type="curve" smooth="yes"/>
			<point x="92" y="128"/>
			<point x="94" y="142"/>
			<point x="100" y="172" type="curve" smooth="yes"/>
			<point x="162" y="478" type="line"/>
			<point x="134" y="478" type="line"/>
			<point x="72" y="168" type="line" smooth="yes"/>
			<point x="66" y="140"/>
			<point x="64" y="128"/>
			<point x="64" y="104" type="curve" smooth="yes"/>
			<point x="64" y="36"/>
			<point x="96" y="-12"/>
			<point x="178" y="-12" type="curve" smooth="yes"/>
			<point x="236" y="-12"/>
			<point x="290" y="26"/>
			<point x="354" y="80" type="curve"/>
			<point x="358" y="80" type="line"/>
			<point x="346" y="34" type="line"/>
		</contour>
		<contour>
			<point name="aboveLC" x="252" y="500" type="move"/>
		</contour>
		<contour>
			<point name="belowLC" x="252" y="-230" type="move"/>
		</contour>
	</outline>
</glyph>
<glyph name="hyphen.sups" format="1">
  <advance width="224"/>
  <outline>
    <contour>
      <point x="74" y="592" type="line"/>
      <point x="220" y="592" type="line"/>
      <point x="226" y="617" type="line"/>
      <point x="80" y="617" type="line"/>
    </contour>
  </outline>
</glyph>
<glyph name="i.a" format="1">
	<outline>
		<contour>
			<point name="aboveUC" x="0" y="500" type="move"/>
		</contour>
		<contour>
			<point name="belowLC" x="0" y="-20" type="move"/>
		</contour>
		<contour>
			<point name="baseLC" x="0" y="0" type="move"/>
		</contour>
		<contour>
			<point name="ogonekLC" x="0" y="0" type="move"/>
		</contour>
	</outline>
</glyph>
<glyph name="i" format="1">
	<advance width="214"/>
	<outline>
		<component base="dotlessi"/>
		<component base="dotaccentcmb" xOffset="60"/>
		<contour>
			<point name="aboveUC" x="198" y="678" type="move"/>
		</contour>
		<contour>
			<point name="belowLC" x="60" y="-20" type="move"/>
		</contour>
		<contour>
			<point name="ogonekLC" x="60" y="0" type="move"/>
		</contour>
		<contour>
			<point name="baseLC" x="107" y="0" type="move"/>
		</contour>
	</outline>
</glyph>
<glyph name="icyr" format="1">
  <advance width="514"/>
  <outline>
    <component base="u"/>
    <contour>
      <point x="308" y="500" type="move" name="aboveLC"/>
    </contour>
  </outline>
</glyph>
<glyph name="iotasubscript" format="1">
  <advance width="532"/>
  <outline>
    <component base="iotasubscriptcmb" xOffset="276"/>
    <contour>
      <point x="-6" y="-30" type="move" name="_belowLC"/>
    </contour>
  </outline>
</glyph>
<glyph name="iotasubscriptcmb" format="1">
  <advance width="0"/>
  <outline>
    <contour>
      <point x="-2" y="-188" type="curve" smooth="yes"/>
      <point x="15" y="-188"/>
      <point x="20" y="-186"/>
      <point x="33" y="-182" type="curve"/>
      <point x="32" y="-156" type="line"/>
      <point x="15" y="-160"/>
      <point x="11" y="-160"/>
      <point x="5" y="-160" type="curve" smooth="yes"/>
      <point x="-7" y="-160"/>
      <point x="-17" y="-150"/>
      <point x="-13" y="-130" type="curve" smooth="yes"/>
      <point x="-9" y="-112"/>
      <point x="-3" y="-86"/>
      <point x="1" y="-68" type="curve"/>
      <point x="-29" y="-68" type="line"/>
      <point x="-40" y="-124" type="line" smooth="yes"/>
      <point x="-49" y="-170"/>
      <point x="-32" y="-188"/>
    </contour>
    <contour>
      <point x="-6.0" y="-30.0" type="move" name="_belowLC"/>
    </contour>
  </outline>
</glyph>
<glyph name="ismall" format="1">
  <advance width="290"/>
  <outline>
    <contour>
      <point x="-8" y="0" type="line"/>
      <point x="198" y="0" type="line"/>
      <point x="204" y="26" type="line"/>
      <point x="114" y="26" type="line"/>
      <point x="200" y="452" type="line"/>
      <point x="290" y="452" type="line"/>
      <point x="296" y="478" type="line"/>
      <point x="88" y="478" type="line"/>
      <point x="82" y="452" type="line"/>
      <point x="170" y="452" type="line"/>
      <point x="84" y="26" type="line"/>
      <point x="-2" y="26" type="line"/>
    </contour>
    <contour>
      <point x="100" y="0" type="move" name="ogonekLC"/>
    </contour>
    <contour>
      <point x="200" y="500" type="move" name="aboveLC"/>
    </contour>
    <contour>
      <point x="100" y="-20" type="move" name="belowLC"/>
    </contour>
  </outline>
</glyph>
<glyph name="istroke.d" format="1">
  <advance width="230"/>
  <outline>
    <contour>
      <point x="4" y="238" type="line"/>
      <point x="222" y="238" type="line"/>
      <point x="222" y="266" type="line"/>
      <point x="100" y="266" type="line"/>
      <point x="4" y="262" type="line"/>
    </contour>
    <component base="dotlessi" xOffset="4"/>
    <contour>
      <point x="164" y="546" type="move" name="aboveLC"/>
    </contour>
  </outline>
</glyph>
<glyph name="istroke" format="1">
  <advance width="230"/>
  <outline>
    <contour>
      <point x="4" y="238" type="line"/>
      <point x="222" y="238" type="line"/>
      <point x="222" y="266" type="line"/>
      <point x="100" y="266" type="line"/>
      <point x="4" y="262" type="line"/>
    </contour>
    <component base="i" xOffset="4"/>
  </outline>
</glyph>
<glyph name="j" format="1">
  <advance width="214"/>
  <outline>
    <component base="dotlessj"/>
    <component base="dotaccentcmb" xOffset="50"/>
    <contour>
      <point x="198" y="678" type="move" name="aboveLC"/>
    </contour>
    <contour>
      <point x="-44" y="-230" type="move" name="belowLC"/>
    </contour>
  </outline>
</glyph>
<glyph name="jcrossedtail.d" format="1">
	<advance width="222"/>
	<outline>
		<contour>
			<point x="136" y="-288" type="curve"/>
			<point x="163" y="-274" type="line"/>
			<point x="112" y="-156"/>
			<point x="58" y="-80"/>
			<point x="-30" y="-80" type="curve" smooth="yes"/>
			<point x="-93" y="-80"/>
			<point x="-131" y="-110"/>
			<point x="-140" y="-152" type="curve" smooth="yes"/>
			<point x="-148" y="-194"/>
			<point x="-118" y="-234"/>
			<point x="-57" y="-234" type="curve" smooth="yes"/>
			<point x="39" y="-234"/>
			<point x="90" y="-164"/>
			<point x="112" y="-52" type="curve" smooth="yes"/>
			<point x="218" y="478" type="line"/>
			<point x="190" y="478" type="line"/>
			<point x="82" y="-58" type="line" smooth="yes"/>
			<point x="69" y="-124"/>
			<point x="38" y="-206"/>
			<point x="-50" y="-206" type="curve" smooth="yes"/>
			<point x="-88" y="-206"/>
			<point x="-114" y="-184"/>
			<point x="-108" y="-154" type="curve" smooth="yes"/>
			<point x="-103" y="-128"/>
			<point x="-79" y="-108"/>
			<point x="-35" y="-108" type="curve" smooth="yes"/>
			<point x="39" y="-108"/>
			<point x="84" y="-174"/>
		</contour>
		<contour>
			<point name="aboveLC" x="200" y="500" type="move"/>
		</contour>
	</outline>
</glyph>
<glyph name="jcrossedtail" format="1">
  <advance width="222"/>
  <outline>
    <contour>
      <point x="136" y="-288" type="curve"/>
      <point x="163" y="-274" type="line"/>
      <point x="112" y="-156"/>
      <point x="58" y="-80"/>
      <point x="-30" y="-80" type="curve" smooth="yes"/>
      <point x="-93" y="-80"/>
      <point x="-131" y="-110"/>
      <point x="-140" y="-152" type="curve" smooth="yes"/>
      <point x="-148" y="-194"/>
      <point x="-118" y="-234"/>
      <point x="-57" y="-234" type="curve" smooth="yes"/>
      <point x="39" y="-234"/>
      <point x="94" y="-164"/>
      <point x="116" y="-52" type="curve" smooth="yes"/>
      <point x="219" y="478" type="line"/>
      <point x="189" y="478" type="line"/>
      <point x="85" y="-58" type="line" smooth="yes"/>
      <point x="72" y="-124"/>
      <point x="38" y="-206"/>
      <point x="-50" y="-206" type="curve" smooth="yes"/>
      <point x="-88" y="-206"/>
      <point x="-114" y="-184"/>
      <point x="-108" y="-154" type="curve" smooth="yes"/>
      <point x="-103" y="-128"/>
      <point x="-79" y="-108"/>
      <point x="-35" y="-108" type="curve" smooth="yes"/>
      <point x="39" y="-108"/>
      <point x="84" y="-174"/>
    </contour>
    <contour>
      <point x="229" y="600" type="curve" smooth="yes"/>
      <point x="247" y="600"/>
      <point x="265" y="614"/>
      <point x="269" y="634" type="curve" smooth="yes"/>
      <point x="274" y="656"/>
      <point x="260" y="668"/>
      <point x="242" y="668" type="curve" smooth="yes"/>
      <point x="224" y="668"/>
      <point x="206" y="656"/>
      <point x="201" y="634" type="curve" smooth="yes"/>
      <point x="197" y="614"/>
      <point x="211" y="600"/>
    </contour>
  </outline>
</glyph>
<glyph name="ka" format="1">
  <advance width="460"/>
  <outline>
    <contour>
      <point x="96" y="0" type="line"/>
      <point x="126" y="0" type="line"/>
      <point x="172" y="236" type="line"/>
      <point x="302" y="236" type="line"/>
      <point x="408" y="0" type="line"/>
      <point x="442" y="0" type="line"/>
      <point x="322" y="264" type="line"/>
      <point x="177" y="264" type="line"/>
      <point x="219" y="478" type="line"/>
      <point x="189" y="478" type="line"/>
    </contour>
    <contour>
      <point x="321" y="240" type="line"/>
      <point x="405" y="378" type="line" smooth="yes"/>
      <point x="448" y="447"/>
      <point x="471" y="458"/>
      <point x="497" y="458" type="curve" smooth="yes"/>
      <point x="504" y="458"/>
      <point x="505" y="458"/>
      <point x="511" y="456" type="curve"/>
      <point x="524" y="486" type="line"/>
      <point x="521" y="488"/>
      <point x="512" y="490"/>
      <point x="505" y="490" type="curve" smooth="yes"/>
      <point x="467" y="490"/>
      <point x="434" y="472"/>
      <point x="381" y="386" type="curve" smooth="yes"/>
      <point x="293" y="243" type="line"/>
    </contour>
    <contour>
      <point x="360" y="502" type="move" name="aboveLC"/>
    </contour>
  </outline>
</glyph>
<glyph name="l.a" format="1">
	<advance width="216"/>
	<outline>
		<contour>
			<point x="44" y="0" type="line"/>
			<point x="72" y="0" type="line"/>
			<point x="216" y="722" type="line"/>
			<point x="188" y="722" type="line"/>
		</contour>
		<contour>
			<point name="aboveLC" x="206" y="730" type="move"/>
		</contour>
		<contour>
			<point name="belowLC" x="60" y="-20" type="move"/>
		</contour>
		<contour>
			<point name="aboveUC" x="108" y="500" type="move"/>
		</contour>
	</outline>
</glyph>
<glyph name="lbelt" format="1">
	<advance width="242"/>
	<outline>
		<contour>
			<point x="108" y="340" type="curve" smooth="yes"/>
			<point x="242" y="340" type="line"/>
			<point x="242" y="368" type="line"/>
			<point x="102" y="368" type="line" smooth="yes"/>
			<point x="52" y="368"/>
			<point x="30" y="388"/>
			<point x="30" y="412" type="curve" smooth="yes"/>
			<point x="30" y="432"/>
			<point x="41" y="450"/>
			<point x="68" y="450" type="curve" smooth="yes"/>
			<point x="108" y="450"/>
			<point x="120" y="414"/>
			<point x="120" y="378" type="curve"/>
			<point x="140" y="370" type="line"/>
			<point x="140" y="406"/>
			<point x="132" y="478"/>
			<point x="64" y="478" type="curve" smooth="yes"/>
			<point x="24" y="478"/>
			<point x="-2" y="450"/>
			<point x="-2" y="414" type="curve" smooth="yes"/>
			<point x="-2" y="371"/>
			<point x="34" y="340"/>
		</contour>
		<component base="l"/>
		<contour>
			<point name="aboveUC" x="206" y="730" type="move"/>
		</contour>
		<contour>
			<point name="belowLC" x="60" y="-20" type="move"/>
		</contour>
	</outline>
</glyph>
<glyph name="leftangleabovecmb" format="1">
  <advance width="0"/>
  <outline>
    <contour>
      <point x="185" y="572" type="line"/>
      <point x="211" y="706" type="line"/>
      <point x="71" y="706" type="line"/>
      <point x="66" y="678" type="line"/>
      <point x="178" y="678" type="line"/>
      <point x="157" y="572" type="line"/>
    </contour>
    <contour>
      <point x="98" y="502" type="move" name="_aboverightLC"/>
    </contour>
  </outline>
</glyph>
<glyph name="lefttackbelowcmb" format="1">
  <advance width="0"/>
  <outline>
    <contour>
      <point x="-1" y="-242" type="line"/>
      <point x="27" y="-242" type="line"/>
      <point x="62" y="-62" type="line"/>
      <point x="34" y="-62" type="line"/>
      <point x="19" y="-138" type="line"/>
      <point x="-93" y="-138" type="line"/>
      <point x="-98" y="-166" type="line"/>
      <point x="14" y="-166" type="line"/>
    </contour>
    <contour>
      <point x="-4" y="-20" type="move" name="_belowLC"/>
    </contour>
  </outline>
</glyph>
<glyph name="lenis.cap" format="1">
  <advance width="82"/>
  <outline>
    <contour>
      <point x="108" y="486" type="line"/>
      <point x="156" y="504"/>
      <point x="205" y="528"/>
      <point x="217" y="590" type="curve" smooth="yes"/>
      <point x="228" y="647"/>
      <point x="176" y="670"/>
      <point x="119" y="672" type="curve"/>
      <point x="112" y="646" type="line"/>
      <point x="166" y="646"/>
      <point x="193" y="624"/>
      <point x="186" y="586" type="curve" smooth="yes"/>
      <point x="178" y="546"/>
      <point x="146" y="524"/>
      <point x="105" y="508" type="curve"/>
    </contour>
  </outline>
</glyph>
<glyph name="lenisacute.cap" format="1">
  <advance width="166"/>
  <outline>
    <contour>
      <point x="108" y="486" type="line"/>
      <point x="146" y="506"/>
      <point x="187" y="538"/>
      <point x="196" y="586" type="curve" smooth="yes"/>
      <point x="208" y="646"/>
      <point x="166" y="670"/>
      <point x="119" y="672" type="curve"/>
      <point x="112" y="646" type="line"/>
      <point x="153" y="644"/>
      <point x="173" y="624"/>
      <point x="165" y="582" type="curve" smooth="yes"/>
      <point x="159" y="552"/>
      <point x="132" y="526"/>
      <point x="101" y="508" type="curve"/>
    </contour>
    <contour>
      <point x="217" y="490" type="line"/>
      <point x="240" y="484" type="line"/>
      <point x="317" y="664" type="line"/>
      <point x="282" y="670" type="line"/>
    </contour>
  </outline>
</glyph>
<glyph name="lenisacutecmb" format="1">
  <advance width="0"/>
  <outline>
    <contour>
      <point x="14" y="578" type="line"/>
      <point x="57" y="591"/>
      <point x="99" y="612"/>
      <point x="109" y="662" type="curve" smooth="yes"/>
      <point x="118" y="712"/>
      <point x="71" y="732"/>
      <point x="19" y="734" type="curve"/>
      <point x="12" y="708" type="line"/>
      <point x="59" y="706"/>
      <point x="84" y="690"/>
      <point x="78" y="658" type="curve" smooth="yes"/>
      <point x="72" y="628"/>
      <point x="46" y="610"/>
      <point x="11" y="600" type="curve"/>
    </contour>
    <contour>
      <point x="124" y="566" type="line"/>
      <point x="147" y="560" type="line"/>
      <point x="247" y="744" type="line"/>
      <point x="210" y="752" type="line"/>
    </contour>
    <contour>
      <point x="100" y="500" type="move" name="_aboveLC"/>
    </contour>
  </outline>
</glyph>
<glyph name="lenisgrave" format="1">
  <advance width="500"/>
  <outline>
    <component base="lenisgravecmb" xOffset="250"/>
    <contour>
      <point x="250" y="502" type="move" name="_aboveLC"/>
    </contour>
  </outline>
</glyph>
<glyph name="lenistilde.cap" format="1">
	<advance width="160"/>
	<outline>
		<contour>
			<point x="187" y="612" type="curve" smooth="yes"/>
			<point x="227" y="612"/>
			<point x="246" y="639"/>
			<point x="254" y="668" type="curve"/>
			<point x="231" y="672" type="line"/>
			<point x="223" y="644"/>
			<point x="207" y="638"/>
			<point x="190" y="638" type="curve" smooth="yes"/>
			<point x="154" y="638"/>
			<point x="153" y="674"/>
			<point x="103" y="674" type="curve" smooth="yes"/>
			<point x="63" y="674"/>
			<point x="44" y="647"/>
			<point x="36" y="618" type="curve"/>
			<point x="59" y="614" type="line"/>
			<point x="67" y="642"/>
			<point x="83" y="648"/>
			<point x="100" y="648" type="curve" smooth="yes"/>
			<point x="136" y="648"/>
			<point x="137" y="612"/>
		</contour>
		<contour>
			<point x="91" y="468" type="line"/>
			<point x="127" y="478"/>
			<point x="171" y="498"/>
			<point x="177" y="532" type="curve" smooth="yes"/>
			<point x="185" y="573"/>
			<point x="140" y="588"/>
			<point x="89" y="590" type="curve"/>
			<point x="82" y="566" type="line"/>
			<point x="130" y="565"/>
			<point x="151" y="552"/>
			<point x="147" y="528" type="curve" smooth="yes"/>
			<point x="144" y="512"/>
			<point x="119" y="498"/>
			<point x="87" y="490" type="curve"/>
		</contour>
	</outline>
</glyph>
<glyph name="lenistildecmb" format="1">
  <advance width="0"/>
  <outline>
    <contour>
      <point x="9" y="704" type="curve"/>
      <point x="32" y="702" type="line"/>
      <point x="42" y="732"/>
      <point x="52" y="748"/>
      <point x="75" y="748" type="curve" smooth="yes"/>
      <point x="120" y="748"/>
      <point x="147" y="706"/>
      <point x="207" y="706" type="curve" smooth="yes"/>
      <point x="251" y="706"/>
      <point x="271" y="745"/>
      <point x="279" y="776" type="curve"/>
      <point x="255" y="778" type="line"/>
      <point x="245" y="748"/>
      <point x="235" y="732"/>
      <point x="212" y="732" type="curve" smooth="yes"/>
      <point x="166" y="732"/>
      <point x="141" y="774"/>
      <point x="80" y="774" type="curve" smooth="yes"/>
      <point x="36" y="774"/>
      <point x="17" y="735"/>
    </contour>
    <contour>
      <point x="89" y="562" type="line"/>
      <point x="125" y="572"/>
      <point x="169" y="592"/>
      <point x="176" y="626" type="curve" smooth="yes"/>
      <point x="184" y="667"/>
      <point x="139" y="682"/>
      <point x="87" y="684" type="curve"/>
      <point x="80" y="660" type="line"/>
      <point x="128" y="659"/>
      <point x="150" y="646"/>
      <point x="145" y="622" type="curve" smooth="yes"/>
      <point x="142" y="606"/>
      <point x="117" y="592"/>
      <point x="86" y="584" type="curve"/>
    </contour>
    <contour>
      <point x="100" y="500" type="move" name="_aboveLC"/>
    </contour>
  </outline>
</glyph>
<glyph name="lmiddletilde" format="1">
	<advance width="226"/>
	<outline>
		<component base="l"/>
		<component base="tildeoverlaycmb" xOffset="67" yOffset="-240"/>
		<contour>
			<point name="belowLC" x="60" y="-20" type="move"/>
		</contour>
		<contour>
			<point name="aboveUC" x="206" y="730" type="move"/>
		</contour>
	</outline>
</glyph>
<glyph name="lretroflex" format="1">
	<advance width="226"/>
	<outline>
		<contour>
			<point x="95" y="-180" type="curve" smooth="yes"/>
			<point x="111" y="-180"/>
			<point x="134" y="-174"/>
			<point x="145" y="-168" type="curve"/>
			<point x="142" y="-142" type="line"/>
			<point x="132" y="-146"/>
			<point x="114" y="-152"/>
			<point x="98" y="-152" type="curve" smooth="yes"/>
			<point x="54" y="-152"/>
			<point x="51" y="-110"/>
			<point x="62" y="-50" type="curve"/>
			<point x="216" y="722" type="line"/>
			<point x="188" y="722" type="line"/>
			<point x="34" y="-54" type="line" smooth="yes"/>
			<point x="16" y="-144"/>
			<point x="37" y="-180"/>
		</contour>
		<contour>
			<point name="aboveUC" x="113" y="730" type="move"/>
		</contour>
		<contour>
			<point name="belowLC" x="113" y="-230" type="move"/>
		</contour>
	</outline>
</glyph>
<glyph name="lsmall" format="1">
  <advance width="394"/>
  <outline>
    <contour>
      <point x="44" y="0" type="line"/>
      <point x="316" y="0" type="line"/>
      <point x="322" y="26" type="line"/>
      <point x="78" y="26" type="line"/>
      <point x="168" y="478" type="line"/>
      <point x="140" y="478" type="line"/>
    </contour>
    <contour>
      <point x="150" y="500" type="move" name="aboveLC"/>
    </contour>
    <contour>
      <point x="248" y="-20" type="move" name="belowLC"/>
    </contour>
  </outline>
</glyph>
<glyph name="macroncmb.cap" format="1">
  <advance width="0"/>
  <outline>
    <contour>
      <point x="32" y="736" type="line"/>
      <point x="262" y="736" type="line"/>
      <point x="268" y="762" type="line"/>
      <point x="38" y="762" type="line"/>
    </contour>
    <contour>
      <point x="136" y="680" type="move" name="_aboveUC"/>
    </contour>
  </outline>
</glyph>
<glyph name="minusbelowcmb" format="1">
	<outline>
		<contour>
			<point x="-118" y="-166" type="line"/>
			<point x="54" y="-166" type="line"/>
			<point x="59" y="-138" type="line"/>
			<point x="-113" y="-138" type="line"/>
		</contour>
		<contour>
			<point name="_belowLC" x="-4" y="-20" type="move"/>
		</contour>
	</outline>
</glyph>
<glyph name="mlonglegturned" format="1">
  <advance width="776"/>
  <outline>
    <component base="mturned"/>
    <contour>
      <point x="388" y="500" type="move" name="aboveLC"/>
    </contour>
    <contour>
      <point x="388" y="-230" type="move" name="belowLC"/>
    </contour>
  </outline>
</glyph>
<glyph name="nhookleft" format="1">
	<advance width="526"/>
	<outline>
		<contour>
			<point x="3" y="-180" type="curve" smooth="yes"/>
			<point x="63" y="-180"/>
			<point x="98" y="-144"/>
			<point x="116" y="-54" type="curve" smooth="yes"/>
			<point x="197" y="366" type="line"/>
			<point x="272" y="430"/>
			<point x="322" y="462"/>
			<point x="382" y="462" type="curve" smooth="yes"/>
			<point x="464" y="462"/>
			<point x="488" y="410"/>
			<point x="467" y="304" type="curve" smooth="yes"/>
			<point x="408" y="0" type="line"/>
			<point x="438" y="0" type="line"/>
			<point x="498" y="308" type="line" smooth="yes"/>
			<point x="522" y="432"/>
			<point x="487" y="490"/>
			<point x="389" y="490" type="curve" smooth="yes"/>
			<point x="323" y="490"/>
			<point x="266" y="452"/>
			<point x="206" y="402" type="curve"/>
			<point x="204" y="402" type="line"/>
			<point x="219" y="478" type="line"/>
			<point x="189" y="478" type="line"/>
			<point x="86" y="-50" type="line" smooth="yes"/>
			<point x="75" y="-110"/>
			<point x="54" y="-152"/>
			<point x="10" y="-152" type="curve" smooth="yes"/>
			<point x="-6" y="-152"/>
			<point x="-20" y="-146"/>
			<point x="-30" y="-142" type="curve"/>
			<point x="-43" y="-168" type="line"/>
			<point x="-34" y="-174"/>
			<point x="-13" y="-180"/>
		</contour>
		<contour>
			<point name="aboveLC" x="376" y="500" type="move"/>
		</contour>
	</outline>
</glyph>
<glyph name="nine.cap" format="1">
  <advance width="456"/>
  <outline>
    <contour>
      <point x="148" y="-12" type="curve" smooth="yes"/>
      <point x="310.269503546" y="-12.0"/>
      <point x="434.0" y="192.596491228"/>
      <point x="434" y="464" type="curve" smooth="yes"/>
      <point x="434" y="584"/>
      <point x="374" y="672"/>
      <point x="274" y="672" type="curve" smooth="yes"/>
      <point x="168" y="672"/>
      <point x="82" y="574"/>
      <point x="82" y="448" type="curve" smooth="yes"/>
      <point x="82.0" y="346.21686747"/>
      <point x="137.272727273" y="272.0"/>
      <point x="234" y="272" type="curve" smooth="yes"/>
      <point x="286" y="272"/>
      <point x="354" y="300"/>
      <point x="404" y="362" type="curve"/>
      <point x="406" y="400" type="line"/>
      <point x="346" y="320"/>
      <point x="272" y="300"/>
      <point x="236" y="300" type="curve" smooth="yes"/>
      <point x="153.3125" y="300.0"/>
      <point x="110.0" y="361.918918919"/>
      <point x="110" y="458" type="curve" smooth="yes"/>
      <point x="110" y="558"/>
      <point x="188" y="646"/>
      <point x="272" y="646" type="curve" smooth="yes"/>
      <point x="356" y="646"/>
      <point x="406" y="566"/>
      <point x="406" y="458" type="curve" smooth="yes"/>
      <point x="406.0" y="215.056603774"/>
      <point x="290.19047619" y="14.0"/>
      <point x="150" y="14" type="curve" smooth="yes"/>
      <point x="104" y="14"/>
      <point x="72" y="36"/>
      <point x="48" y="80" type="curve"/>
      <point x="24" y="64" type="line"/>
      <point x="50" y="18"/>
      <point x="88" y="-12"/>
    </contour>
  </outline>
</glyph>
<glyph name="nretroflex" format="1">
	<advance width="526"/>
	<outline>
		<contour>
			<point x="461" y="-180" type="curve" smooth="yes"/>
			<point x="477" y="-180"/>
			<point x="500" y="-174"/>
			<point x="511" y="-168" type="curve"/>
			<point x="508" y="-142" type="line"/>
			<point x="498" y="-146"/>
			<point x="480" y="-152"/>
			<point x="464" y="-152" type="curve" smooth="yes"/>
			<point x="420" y="-152"/>
			<point x="417" y="-110"/>
			<point x="428" y="-50" type="curve"/>
			<point x="498" y="308" type="line" smooth="yes"/>
			<point x="522" y="432"/>
			<point x="487" y="490"/>
			<point x="389" y="490" type="curve" smooth="yes"/>
			<point x="323" y="490"/>
			<point x="266" y="452"/>
			<point x="206" y="402" type="curve"/>
			<point x="204" y="402" type="line"/>
			<point x="215" y="478" type="line"/>
			<point x="189" y="478" type="line"/>
			<point x="96" y="0" type="line"/>
			<point x="126" y="0" type="line"/>
			<point x="197" y="366" type="line"/>
			<point x="272" y="430"/>
			<point x="322" y="462"/>
			<point x="382" y="462" type="curve" smooth="yes"/>
			<point x="464" y="462"/>
			<point x="488" y="410"/>
			<point x="467" y="304" type="curve" smooth="yes"/>
			<point x="398" y="-54" type="line" smooth="yes"/>
			<point x="380" y="-144"/>
			<point x="401" y="-180"/>
		</contour>
		<contour>
			<point name="aboveLC" x="376" y="500" type="move"/>
		</contour>
	</outline>
</glyph>
<glyph name="numbersign" format="1">
  <advance width="458"/>
  <outline>
    <contour>
      <point x="216.0" y="0.0" type="line"/>
      <point x="244.0" y="0.0" type="line"/>
      <point x="446.0" y="650.0" type="line"/>
      <point x="418.0" y="650.0" type="line"/>
    </contour>
    <contour>
      <point x="42" y="0" type="line"/>
      <point x="70.0" y="0.0" type="line"/>
      <point x="272.0" y="650.0" type="line"/>
      <point x="244.0" y="650.0" type="line"/>
    </contour>
    <contour>
      <point x="28" y="218" type="line"/>
      <point x="398" y="218" type="line"/>
      <point x="406" y="246" type="line"/>
      <point x="36" y="246" type="line"/>
    </contour>
    <contour>
      <point x="88" y="424" type="line"/>
      <point x="458" y="424" type="line"/>
      <point x="466" y="452" type="line"/>
      <point x="96" y="452" type="line"/>
    </contour>
  </outline>
</glyph>
<glyph name="odieresis" format="1">
  <advance width="500"/>
  <outline>
    <component base="o"/>
    <component base="dieresiscmb" xOffset="218"/>
    <contour>
      <point x="250" y="0" type="move" name="ogonekLC"/>
    </contour>
  </outline>
</glyph>
<glyph name="ogonekcmb.ATHcap" format="1">
	<outline>
		<contour>
			<point x="-30" y="-202" type="curve" smooth="yes"/>
			<point x="-14" y="-202"/>
			<point x="6" y="-196"/>
			<point x="24" y="-186" type="curve"/>
			<point x="14" y="-164" type="line"/>
			<point x="0" y="-172"/>
			<point x="-12" y="-176"/>
			<point x="-28" y="-176" type="curve" smooth="yes"/>
			<point x="-50" y="-176"/>
			<point x="-66" y="-160"/>
			<point x="-66" y="-134" type="curve" smooth="yes"/>
			<point x="-66" y="-88"/>
			<point x="-24" y="-36"/>
			<point x="36" y="4" type="curve"/>
			<point x="2" y="4" type="line"/>
			<point x="-48" y="-30"/>
			<point x="-96" y="-88"/>
			<point x="-96" y="-140" type="curve" smooth="yes"/>
			<point x="-96" y="-182"/>
			<point x="-68" y="-202"/>
		</contour>
		<contour>
			<point name="_baseUC" x="0" y="0" type="move"/>
		</contour>
		<contour>
			<point name="_baseLC" x="0" y="0" type="move"/>
		</contour>
	</outline>
</glyph>
<glyph name="omegaiotasub" format="1">
  <advance width="630"/>
  <outline>
    <component base="omega"/>
    <component base="iotasubscriptcmb" xOffset="286" yOffset="10"/>
    <contour>
      <point x="360" y="500" type="move" name="aboveLC"/>
    </contour>
  </outline>
</glyph>
<glyph name="overlinecmb" format="1">
  <advance width="0"/>
  <outline>
    <component base="macroncmb"/>
    <contour>
      <point x="100" y="500" type="move" name="_aboveLC"/>
    </contour>
  </outline>
</glyph>
<glyph name="pe" format="1">
	<advance width="504"/>
	<outline>
		<component base="n"/>
		<contour>
			<point name="aboveLC" x="320" y="500" type="move"/>
		</contour>
	</outline>
</glyph>
<glyph name="perispomenicmb.cap" format="1">
  <advance width="0"/>
  <outline>
    <component base="tildecmb.cap"/>
    <contour>
      <point x="136" y="680" type="move" name="_aboveUC"/>
    </contour>
  </outline>
</glyph>
<glyph name="perispomenicmb" format="1">
  <advance width="0"/>
  <outline>
    <component base="tildecmb"/>
    <contour>
      <point x="104" y="500" type="move" name="_aboveLC"/>
    </contour>
  </outline>
</glyph>
<glyph name="plusbelowcmb" format="1">
  <advance width="0"/>
  <outline>
    <contour>
      <point x="54" y="-166" type="line"/>
      <point x="59" y="-138" type="line"/>
      <point x="-13" y="-138" type="line"/>
      <point x="2" y="-62" type="line"/>
      <point x="-26" y="-62" type="line"/>
      <point x="-41" y="-138" type="line"/>
      <point x="-113" y="-138" type="line"/>
      <point x="-118" y="-166" type="line"/>
      <point x="-46" y="-166" type="line"/>
      <point x="-61" y="-242" type="line"/>
      <point x="-33" y="-242" type="line"/>
      <point x="-18" y="-166" type="line"/>
    </contour>
    <contour>
      <point x="-4" y="-22" type="move" name="_belowLC"/>
    </contour>
  </outline>
</glyph>
<glyph name="primereversed" format="1">
  <advance width="202"/>
  <outline>
    <contour>
      <point x="143" y="498" type="line"/>
      <point x="144" y="630" type="line"/>
      <point x="149" y="692" type="line"/>
      <point x="177" y="694" type="line"/>
      <point x="163" y="500" type="line"/>
    </contour>
  </outline>
</glyph>
<glyph name="psili" format="1">
  <advance width="500"/>
  <outline>
    <component base="leniscmb" xOffset="250"/>
    <contour>
      <point x="250" y="500" type="move" name="_aboveLC"/>
    </contour>
  </outline>
</glyph>
<glyph name="ramshorn" format="1">
  <advance width="464"/>
  <outline>
    <contour>
      <point x="230" y="-12" type="curve" smooth="yes"/>
      <point x="337" y="-12"/>
      <point x="396" y="50"/>
      <point x="414" y="144" type="curve" smooth="yes"/>
      <point x="430" y="228"/>
      <point x="384" y="308"/>
      <point x="327" y="376" type="curve"/>
      <point x="381" y="428"/>
      <point x="431" y="462"/>
      <point x="477" y="462" type="curve" smooth="yes"/>
      <point x="495" y="462"/>
      <point x="510" y="458"/>
      <point x="522" y="448" type="curve"/>
      <point x="540" y="471" type="line"/>
      <point x="524" y="483"/>
      <point x="503" y="490"/>
      <point x="479" y="490" type="curve" smooth="yes"/>
      <point x="425" y="490"/>
      <point x="364" y="448"/>
      <point x="309" y="396" type="curve"/>
      <point x="273" y="448"/>
      <point x="229" y="490"/>
      <point x="175" y="490" type="curve" smooth="yes"/>
      <point x="151" y="490"/>
      <point x="128" y="483"/>
      <point x="108" y="471" type="curve"/>
      <point x="116" y="448" type="line"/>
      <point x="132" y="458"/>
      <point x="149" y="462"/>
      <point x="167" y="462" type="curve" smooth="yes"/>
      <point x="212" y="462"/>
      <point x="249" y="428"/>
      <point x="283" y="376" type="curve"/>
      <point x="198" y="308"/>
      <point x="122" y="228"/>
      <point x="106" y="144" type="curve" smooth="yes"/>
      <point x="88" y="50"/>
      <point x="123" y="-12"/>
    </contour>
    <contour>
      <point x="235" y="16" type="curve" smooth="yes"/>
      <point x="151" y="16"/>
      <point x="125" y="75"/>
      <point x="138" y="144" type="curve" smooth="yes"/>
      <point x="153" y="220"/>
      <point x="224" y="296"/>
      <point x="302" y="358" type="curve"/>
      <point x="356" y="296"/>
      <point x="397" y="220"/>
      <point x="382" y="144" type="curve" smooth="yes"/>
      <point x="369" y="75"/>
      <point x="319" y="16"/>
    </contour>
  </outline>
</glyph>
<glyph name="rfishhook" format="1">
	<advance width="296"/>
	<outline>
		<contour>
			<point x="96" y="0" type="line"/>
			<point x="126" y="0" type="line"/>
			<point x="188" y="318" type="line" smooth="yes"/>
			<point x="205" y="408"/>
			<point x="262" y="462"/>
			<point x="324" y="462" type="curve" smooth="yes"/>
			<point x="348" y="462"/>
			<point x="363" y="460"/>
			<point x="379" y="450" type="curve"/>
			<point x="393" y="476" type="line"/>
			<point x="376" y="486"/>
			<point x="357" y="490"/>
			<point x="331" y="490" type="curve" smooth="yes"/>
			<point x="256" y="490"/>
			<point x="181" y="437"/>
			<point x="159" y="322" type="curve" smooth="yes"/>
		</contour>
		<contour>
			<point name="aboveLC" x="290" y="500" type="move"/>
		</contour>
		<contour>
			<point name="belowLC" x="148" y="-20" type="move"/>
		</contour>
	</outline>
</glyph>
<glyph name="rhookturned" format="1">
	<advance width="306"/>
	<outline>
		<contour>
			<point x="233" y="-180" type="curve" smooth="yes"/>
			<point x="249" y="-180"/>
			<point x="272" y="-174"/>
			<point x="283" y="-168" type="curve"/>
			<point x="280" y="-142" type="line"/>
			<point x="270" y="-146"/>
			<point x="252" y="-152"/>
			<point x="236" y="-152" type="curve" smooth="yes"/>
			<point x="192" y="-152"/>
			<point x="189" y="-110"/>
			<point x="200" y="-50" type="curve"/>
			<point x="303" y="478" type="line"/>
			<point x="273" y="478" type="line"/>
			<point x="208" y="146" type="line"/>
			<point x="152" y="52"/>
			<point x="93" y="18"/>
			<point x="49" y="18" type="curve" smooth="yes"/>
			<point x="31" y="18"/>
			<point x="24" y="20"/>
			<point x="9" y="26" type="curve"/>
			<point x="-4" y="-2" type="line"/>
			<point x="10" y="-10"/>
			<point x="24" y="-12"/>
			<point x="40" y="-12" type="curve" smooth="yes"/>
			<point x="98" y="-12"/>
			<point x="152" y="32"/>
			<point x="195" y="90" type="curve"/>
			<point x="197" y="90" type="line"/>
			<point x="170" y="-54" type="line" smooth="yes"/>
			<point x="152" y="-144"/>
			<point x="173" y="-180"/>
		</contour>
		<contour>
			<point name="aboveLC" x="290" y="500" type="move"/>
		</contour>
		<contour>
			<point name="belowLC" x="6" y="-20" type="move"/>
		</contour>
	</outline>
</glyph>
<glyph name="ringbelowcmb" format="1">
  <advance width="0"/>
  <outline>
    <component base="ringcmb" xOffset="-156" yOffset="-804"/>
    <contour>
      <point x="-6" y="-20" type="move" name="_belowLC"/>
    </contour>
  </outline>
</glyph>
<glyph name="ringhalfleftbelowcmb" format="1">
  <advance width="0"/>
  <outline>
    <contour>
      <point x="-2" y="-256" type="curve"/>
      <point x="2" y="-236" type="line"/>
      <point x="-53" y="-236"/>
      <point x="-70" y="-207"/>
      <point x="-62" y="-164" type="curve" smooth="yes"/>
      <point x="-54" y="-121"/>
      <point x="-25" y="-92"/>
      <point x="30" y="-92" type="curve"/>
      <point x="34" y="-72" type="line"/>
      <point x="-30" y="-70"/>
      <point x="-78" y="-105"/>
      <point x="-90" y="-164" type="curve" smooth="yes"/>
      <point x="-101" y="-223"/>
      <point x="-66" y="-258"/>
    </contour>
    <contour>
      <point x="-4" y="-20" type="move" name="_belowLC"/>
    </contour>
  </outline>
</glyph>
<glyph name="rtail" format="1">
	<advance width="306"/>
	<outline>
		<contour>
			<point x="149" y="-180" type="curve" smooth="yes"/>
			<point x="165" y="-180"/>
			<point x="188" y="-174"/>
			<point x="199" y="-168" type="curve"/>
			<point x="196" y="-142" type="line"/>
			<point x="186" y="-146"/>
			<point x="168" y="-152"/>
			<point x="152" y="-152" type="curve" smooth="yes"/>
			<point x="108" y="-152"/>
			<point x="105" y="-110"/>
			<point x="116" y="-50" type="curve"/>
			<point x="191" y="332" type="line"/>
			<point x="247" y="426"/>
			<point x="305" y="460"/>
			<point x="349" y="460" type="curve" smooth="yes"/>
			<point x="367" y="460"/>
			<point x="375" y="458"/>
			<point x="390" y="452" type="curve"/>
			<point x="403" y="480" type="line"/>
			<point x="389" y="488"/>
			<point x="375" y="490"/>
			<point x="359" y="490" type="curve" smooth="yes"/>
			<point x="301" y="490"/>
			<point x="247" y="446"/>
			<point x="203" y="388" type="curve"/>
			<point x="201" y="388" type="line"/>
			<point x="215" y="478" type="line"/>
			<point x="189" y="478" type="line"/>
			<point x="86" y="-54" type="line" smooth="yes"/>
			<point x="68" y="-144"/>
			<point x="89" y="-180"/>
		</contour>
		<contour>
			<point name="aboveLC" x="290" y="500" type="move"/>
		</contour>
		<contour>
			<point name="belowLC" x="106" y="-20" type="move"/>
		</contour>
	</outline>
</glyph>
<glyph name="seven.cap" format="1">
  <advance width="456"/>
  <outline>
    <contour>
      <point x="136" y="0" type="curve"/>
      <point x="168" y="0" type="line"/>
      <point x="219.573457472" y="251.678472462"/>
      <point x="285.550402295" y="441.726623986"/>
      <point x="492" y="640" type="curve"/>
      <point x="496" y="660" type="line"/>
      <point x="124" y="660" type="line"/>
      <point x="118" y="634" type="line"/>
      <point x="454" y="634" type="line"/>
      <point x="265.842377505" y="447.887569054"/>
      <point x="193.773088559" y="262.042223107"/>
    </contour>
  </outline>
</glyph>
<glyph name="sha" format="1">
	<advance width="776"/>
	<outline>
		<component base="mturned"/>
		<contour>
			<point name="aboveLC" x="388" y="500" type="move"/>
		</contour>
	</outline>
</glyph>
<glyph name="shcha" format="1">
  <advance width="780"/>
  <outline>
    <contour>
      <point x="638" y="-172" type="line"/>
      <point x="660" y="-172" type="line"/>
      <point x="702" y="12" type="line"/>
      <point x="704" y="26" type="line"/>
      <point x="634" y="26" type="line"/>
      <point x="628" y="0" type="line"/>
      <point x="671" y="0" type="line"/>
    </contour>
    <component base="mturned"/>
    <contour>
      <point x="390" y="500" type="move" name="aboveLC"/>
    </contour>
  </outline>
</glyph>
<glyph name="shook" format="1">
  <advance width="400"/>
  <outline>
    <contour>
      <point x="206" y="-12" type="curve" smooth="yes"/>
      <point x="306" y="-12"/>
      <point x="374" y="50"/>
      <point x="387" y="120" type="curve" smooth="yes"/>
      <point x="406" y="214"/>
      <point x="326" y="237"/>
      <point x="256" y="266" type="curve" smooth="yes"/>
      <point x="202" y="288"/>
      <point x="148" y="310"/>
      <point x="160" y="368" type="curve" smooth="yes"/>
      <point x="169" y="415"/>
      <point x="214" y="462"/>
      <point x="294" y="462" type="curve" smooth="yes"/>
      <point x="344" y="462"/>
      <point x="374" y="442"/>
      <point x="401" y="418" type="curve"/>
      <point x="424" y="442" type="line"/>
      <point x="395" y="470"/>
      <point x="349" y="490"/>
      <point x="301" y="490" type="curve" smooth="yes"/>
      <point x="203" y="490"/>
      <point x="140" y="432"/>
      <point x="127" y="366" type="curve" smooth="yes"/>
      <point x="111" y="284"/>
      <point x="188" y="256"/>
      <point x="257" y="230" type="curve" smooth="yes"/>
      <point x="309" y="210"/>
      <point x="367" y="182"/>
      <point x="355" y="118" type="curve" smooth="yes"/>
      <point x="344" y="64"/>
      <point x="293" y="16"/>
      <point x="213" y="16" type="curve" smooth="yes"/>
      <point x="141" y="16"/>
      <point x="102" y="39"/>
      <point x="67" y="68" type="curve"/>
      <point x="43" y="44" type="line"/>
      <point x="79" y="13"/>
      <point x="134" y="-12"/>
    </contour>
    <contour>
      <point x="97" y="-180" type="curve" smooth="yes"/>
      <point x="117" y="-180"/>
      <point x="142" y="-174"/>
      <point x="157" y="-168" type="curve"/>
      <point x="154" y="-142" type="line"/>
      <point x="142" y="-146"/>
      <point x="120" y="-152"/>
      <point x="100" y="-152" type="curve" smooth="yes"/>
      <point x="44" y="-152"/>
      <point x="43" y="-106"/>
      <point x="55" y="-44" type="curve"/>
      <point x="73" y="44" type="line"/>
      <point x="43" y="44" type="line"/>
      <point x="25" y="-48" type="line" smooth="yes"/>
      <point x="7" y="-140"/>
      <point x="31" y="-180"/>
    </contour>
    <contour>
      <point x="304" y="502" type="move" name="aboveLC"/>
    </contour>
  </outline>
</glyph>
<glyph name="six.cap" format="1">
  <advance width="456"/>
  <outline>
    <contour>
      <point x="212" y="-12" type="curve" smooth="yes"/>
      <point x="318" y="-12"/>
      <point x="404" y="86"/>
      <point x="404" y="212" type="curve" smooth="yes"/>
      <point x="404.0" y="313.78313253"/>
      <point x="348.727272727" y="388.0"/>
      <point x="252" y="388" type="curve" smooth="yes"/>
      <point x="200" y="388"/>
      <point x="132" y="360"/>
      <point x="82" y="298" type="curve"/>
      <point x="80" y="260" type="line"/>
      <point x="140" y="340"/>
      <point x="214" y="360"/>
      <point x="250" y="360" type="curve" smooth="yes"/>
      <point x="332.6875" y="360.0"/>
      <point x="376.0" y="298.081081081"/>
      <point x="376" y="202" type="curve" smooth="yes"/>
      <point x="376" y="102"/>
      <point x="298" y="14"/>
      <point x="214" y="14" type="curve" smooth="yes"/>
      <point x="130" y="14"/>
      <point x="80" y="94"/>
      <point x="80" y="202" type="curve" smooth="yes"/>
      <point x="80.0" y="444.943396226"/>
      <point x="195.80952381" y="646.0"/>
      <point x="336" y="646" type="curve" smooth="yes"/>
      <point x="382" y="646"/>
      <point x="414" y="624"/>
      <point x="438" y="580" type="curve"/>
      <point x="462" y="596" type="line"/>
      <point x="436" y="642"/>
      <point x="398" y="672"/>
      <point x="338" y="672" type="curve" smooth="yes"/>
      <point x="175.730496454" y="672.0"/>
      <point x="52.0" y="467.403508772"/>
      <point x="52" y="196" type="curve" smooth="yes"/>
      <point x="52" y="76"/>
      <point x="112" y="-12"/>
    </contour>
  </outline>
</glyph>
<glyph name="tenge" format="1">
  <advance width="456"/>
  <outline>
    <contour>
      <point x="156" y="0" type="line"/>
      <point x="186" y="0" type="line"/>
      <point x="287" y="504" type="line"/>
      <point x="471" y="504" type="line"/>
      <point x="476" y="532" type="line"/>
      <point x="142" y="532" type="line"/>
      <point x="76" y="528" type="line"/>
      <point x="71" y="504" type="line"/>
      <point x="257" y="504" type="line"/>
    </contour>
    <contour>
      <point x="92" y="612" type="line"/>
      <point x="492" y="612" type="line"/>
      <point x="498" y="640" type="line"/>
      <point x="98" y="640" type="line"/>
    </contour>
  </outline>
</glyph>
<glyph name="tesh" format="1">
  <advance width="462"/>
  <outline>
    <component base="t"/>
    <component base="esh" xOffset="202"/>
    <contour>
      <point x="231" y="730" type="move" name="aboveUC"/>
    </contour>
    <contour>
      <point x="231" y="-230" type="move" name="belowLC"/>
    </contour>
  </outline>
</glyph>
<glyph name="tildeoverlaycmb" format="1">
	<outline>
		<component base="tildecmb" xOffset="-84" yOffset="-384"/>
		<contour>
			<point name="_center" x="46" y="240" type="move"/>
		</contour>
	</outline>
</glyph>
<glyph name="tonoscmb" format="1">
  <advance width="0"/>
  <outline>
    <contour>
      <point x="98" y="562" type="line"/>
      <point x="186" y="724" type="line"/>
      <point x="150" y="724" type="line"/>
      <point x="76" y="562" type="line"/>
    </contour>
  </outline>
</glyph>
<glyph name="triangleblackleft" format="1">
  <advance width="910"/>
  <outline>
    <contour>
      <point x="883" y="-50" type="line"/>
      <point x="885" y="-50" type="line"/>
      <point x="885" y="750" type="line"/>
      <point x="883" y="750" type="line"/>
      <point x="45" y="352" type="line"/>
      <point x="45" y="348" type="line"/>
    </contour>
  </outline>
</glyph>
<glyph name="triangleblackright" format="1">
	<advance width="910"/>
	<outline>
		<contour>
			<point x="65" y="-50" type="line"/>
			<point x="67" y="-50" type="line"/>
			<point x="905" y="348" type="line"/>
			<point x="905" y="352" type="line"/>
			<point x="67" y="750" type="line"/>
			<point x="65" y="750" type="line"/>
		</contour>
	</outline>
</glyph>
<glyph name="triangleblackup" format="1">
	<advance width="910"/>
	<outline>
		<contour>
			<point x="75" y="-60" type="line"/>
			<point x="875" y="-60" type="line"/>
			<point x="875" y="-58" type="line"/>
			<point x="477" y="780" type="line"/>
			<point x="473" y="780" type="line"/>
			<point x="75" y="-58" type="line"/>
		</contour>
	</outline>
</glyph>
<glyph name="ts" format="1">
	<advance width="586"/>
	<outline>
		<contour>
			<point x="252" y="14" type="curve" smooth="yes"/>
			<point x="144" y="14"/>
			<point x="108" y="52"/>
			<point x="108" y="116" type="curve" smooth="yes"/>
			<point x="108" y="136"/>
			<point x="111" y="148"/>
			<point x="114" y="162" type="curve" smooth="yes"/>
			<point x="174" y="452" type="line"/>
			<point x="306" y="452" type="line"/>
			<point x="312" y="478" type="line"/>
			<point x="180" y="478" type="line"/>
			<point x="208" y="616" type="line"/>
			<point x="184" y="616" type="line"/>
			<point x="152" y="478" type="line"/>
			<point x="74" y="474" type="line"/>
			<point x="70" y="452" type="line"/>
			<point x="146" y="452" type="line"/>
			<point x="86" y="164" type="line" smooth="yes"/>
			<point x="84" y="154"/>
			<point x="80" y="132"/>
			<point x="80" y="110" type="curve" smooth="yes"/>
			<point x="80" y="36"/>
			<point x="124" y="-12"/>
			<point x="250" y="-12" type="curve" smooth="yes"/>
			<point x="428" y="-12"/>
			<point x="492" y="54"/>
			<point x="492" y="146" type="curve" smooth="yes"/>
			<point x="492" y="283"/>
			<point x="340" y="274"/>
			<point x="340" y="380" type="curve" smooth="yes"/>
			<point x="340" y="424"/>
			<point x="376" y="464"/>
			<point x="426" y="464" type="curve" smooth="yes"/>
			<point x="468" y="464"/>
			<point x="494" y="444"/>
			<point x="518" y="420" type="curve"/>
			<point x="536" y="440" type="line"/>
			<point x="508" y="470"/>
			<point x="472" y="490"/>
			<point x="428" y="490" type="curve" smooth="yes"/>
			<point x="366" y="490"/>
			<point x="312" y="446"/>
			<point x="312" y="374" type="curve" smooth="yes"/>
			<point x="312" y="254"/>
			<point x="464" y="267"/>
			<point x="464" y="140" type="curve" smooth="yes"/>
			<point x="464" y="76"/>
			<point x="408" y="14"/>
		</contour>
		<contour>
			<point name="aboveLC" x="293" y="500" type="move"/>
		</contour>
		<contour>
			<point name="belowLC" x="293" y="-20" type="move"/>
		</contour>
	</outline>
</glyph>
<glyph name="tse" format="1">
	<advance width="508"/>
	<outline>
		<contour>
			<point x="366" y="-172" type="line"/>
			<point x="388" y="-172" type="line"/>
			<point x="430" y="12" type="line"/>
			<point x="432" y="26" type="line"/>
			<point x="362" y="26" type="line"/>
			<point x="356" y="0" type="line"/>
			<point x="399" y="0" type="line"/>
		</contour>
		<component base="u"/>
		<contour>
			<point name="aboveLC" x="308" y="500" type="move"/>
		</contour>
	</outline>
</glyph>
<glyph name="tugrik" format="1">
	<advance width="456"/>
	<outline>
		<contour>
			<point x="156" y="0" type="line"/>
			<point x="186" y="0" type="line"/>
			<point x="308" y="612" type="line"/>
			<point x="492" y="612" type="line"/>
			<point x="498" y="640" type="line"/>
			<point x="98" y="640" type="line"/>
			<point x="92" y="612" type="line"/>
			<point x="278" y="612" type="line"/>
		</contour>
		<contour>
			<point x="46" y="170" type="line"/>
			<point x="205" y="244" type="line"/>
			<point x="238" y="260" type="line"/>
			<point x="397" y="334" type="line"/>
			<point x="403" y="364" type="line"/>
			<point x="244" y="290" type="line"/>
			<point x="261" y="376" type="line"/>
			<point x="420" y="450" type="line"/>
			<point x="426" y="480" type="line"/>
			<point x="267" y="406" type="line"/>
			<point x="234" y="390" type="line"/>
			<point x="75" y="316" type="line"/>
			<point x="69" y="286" type="line"/>
			<point x="228" y="360" type="line"/>
			<point x="211" y="274" type="line"/>
			<point x="52" y="200" type="line"/>
		</contour>
	</outline>
</glyph>
<glyph name="two.cap" format="1">
	<advance width="456"/>
	<outline>
		<contour>
			<point x="-8" y="0" type="line"/>
			<point x="362" y="0" type="line"/>
			<point x="366" y="26" type="line"/>
			<point x="42" y="26" type="line"/>
			<point x="318" y="264"/>
			<point x="434" y="370"/>
			<point x="434" y="526" type="curve" smooth="yes"/>
			<point x="434" y="608"/>
			<point x="382" y="672"/>
			<point x="282" y="672" type="curve" smooth="yes"/>
			<point x="218" y="672"/>
			<point x="166" y="642"/>
			<point x="110" y="594" type="curve"/>
			<point x="128" y="572" type="line"/>
			<point x="178" y="622"/>
			<point x="232" y="646"/>
			<point x="280" y="646" type="curve" smooth="yes"/>
			<point x="366" y="646"/>
			<point x="406" y="588"/>
			<point x="406" y="520" type="curve" smooth="yes"/>
			<point x="406" y="380"/>
			<point x="295" y="280"/>
			<point x="-6" y="20" type="curve"/>
		</contour>
	</outline>
</glyph>
<glyph name="ubar" format="1">
  <advance width="504"/>
  <outline>
    <contour>
      <point x="0" y="258" type="line"/>
      <point x="506" y="258" type="line"/>
      <point x="512" y="284" type="line"/>
      <point x="78" y="284" type="line"/>
      <point x="4" y="280" type="line"/>
    </contour>
    <component base="u"/>
    <contour>
      <point x="252" y="500" type="move" name="aboveLC"/>
    </contour>
    <contour>
      <point x="252" y="0" type="move" name="baseLC"/>
    </contour>
    <contour>
      <point x="252" y="-20" type="move" name="belowLC"/>
    </contour>
  </outline>
</glyph>
<glyph name="ucyr" format="1">
  <advance width="408"/>
  <outline>
    <component base="y"/>
    <contour>
      <point x="248" y="500" type="move" name="aboveLC"/>
    </contour>
  </outline>
</glyph>
<glyph name="upsilonlatin" format="1">
  <advance width="528"/>
  <outline>
    <contour>
      <point x="262" y="-12" type="curve"/>
      <point x="394" y="-12"/>
      <point x="491" y="96"/>
      <point x="514" y="216" type="curve" smooth="yes"/>
      <point x="536" y="330"/>
      <point x="499" y="406"/>
      <point x="461" y="448" type="curve"/>
      <point x="461" y="450" type="line"/>
      <point x="571" y="450" type="line"/>
      <point x="577" y="478" type="line"/>
      <point x="415" y="478" type="line"/>
      <point x="411" y="458" type="line"/>
      <point x="468" y="414"/>
      <point x="505" y="334"/>
      <point x="483" y="222" type="curve" smooth="yes"/>
      <point x="462" y="114"/>
      <point x="381" y="16"/>
      <point x="267" y="16" type="curve"/>
      <point x="153" y="16"/>
      <point x="110" y="114"/>
      <point x="131" y="222" type="curve" smooth="yes"/>
      <point x="153" y="334"/>
      <point x="220" y="414"/>
      <point x="295" y="458" type="curve"/>
      <point x="299" y="478" type="line"/>
      <point x="137" y="478" type="line"/>
      <point x="131" y="450" type="line"/>
      <point x="241" y="450" type="line"/>
      <point x="241" y="448" type="line"/>
      <point x="187" y="406"/>
      <point x="120" y="330"/>
      <point x="98" y="216" type="curve" smooth="yes"/>
      <point x="75" y="96"/>
      <point x="130" y="-12"/>
    </contour>
    <contour>
      <point x="362" y="500" type="move" name="aboveLC"/>
    </contour>
    <contour>
      <point x="260" y="-20" type="move" name="belowLC"/>
    </contour>
  </outline>
</glyph>
<glyph name="uptackbelowcmb" format="1">
  <advance width="0"/>
  <outline>
    <contour>
      <point x="-124" y="-196" type="line"/>
      <point x="48" y="-196" type="line"/>
      <point x="53" y="-168" type="line"/>
      <point x="-19" y="-168" type="line"/>
      <point x="2" y="-62" type="line"/>
      <point x="-26" y="-62" type="line"/>
      <point x="-47" y="-168" type="line"/>
      <point x="-119" y="-168" type="line"/>
    </contour>
    <contour>
      <point x="-4" y="-20" type="move" name="_belowLC"/>
    </contour>
  </outline>
</glyph>
<glyph name="varia" format="1">
  <advance width="500"/>
  <outline>
    <component base="variacmb" xOffset="266"/>
    <contour>
      <point x="250" y="500" type="move" name="_aboveLC"/>
    </contour>
  </outline>
</glyph>
<glyph name="vhook" format="1">
	<advance width="512"/>
	<outline>
		<contour>
			<point x="250" y="-12" type="curve" smooth="yes"/>
			<point x="381" y="-12"/>
			<point x="475" y="116"/>
			<point x="506" y="276" type="curve" smooth="yes"/>
			<point x="534" y="420"/>
			<point x="503" y="490"/>
			<point x="419" y="490" type="curve" smooth="yes"/>
			<point x="401" y="490"/>
			<point x="385" y="488"/>
			<point x="368" y="482" type="curve"/>
			<point x="372" y="454" type="line"/>
			<point x="387" y="460"/>
			<point x="398" y="462"/>
			<point x="410" y="462" type="curve" smooth="yes"/>
			<point x="478" y="462"/>
			<point x="496" y="392"/>
			<point x="473" y="272" type="curve" smooth="yes"/>
			<point x="446" y="132"/>
			<point x="363" y="16"/>
			<point x="256" y="16" type="curve" smooth="yes"/>
			<point x="185" y="16"/>
			<point x="131" y="66"/>
			<point x="157" y="201" type="curve" smooth="yes"/>
			<point x="211" y="478" type="line"/>
			<point x="181" y="478" type="line"/>
			<point x="125" y="191" type="line" smooth="yes"/>
			<point x="97" y="44"/>
			<point x="162" y="-12"/>
		</contour>
		<contour>
			<point name="aboveLC" x="356" y="500" type="move"/>
		</contour>
		<contour>
			<point name="belowLC" x="272" y="-20" type="move"/>
		</contour>
	</outline>
</glyph>
<glyph name="ysmall" format="1">
  <advance width="374"/>
  <outline>
    <contour>
      <point x="172" y="0" type="line"/>
      <point x="202" y="0" type="line"/>
      <point x="236" y="176" type="line"/>
      <point x="463" y="478" type="line"/>
      <point x="429" y="478" type="line"/>
      <point x="311" y="316" type="line"/>
      <point x="285" y="279"/>
      <point x="259" y="245"/>
      <point x="230" y="208" type="curve"/>
      <point x="226" y="208" type="line"/>
      <point x="212" y="245"/>
      <point x="198" y="279"/>
      <point x="185" y="316" type="curve"/>
      <point x="131" y="478" type="line"/>
      <point x="97" y="478" type="line"/>
      <point x="206" y="176" type="line"/>
    </contour>
    <contour>
      <point x="286" y="500" type="move" name="aboveLC"/>
    </contour>
    <contour>
      <point x="182" y="-20" type="move" name="belowLC"/>
    </contour>
  </outline>
</glyph>
<glyph name="zcurl" format="1">
  <advance width="406"/>
  <outline>
    <contour>
      <point x="182" y="-80" type="line"/>
      <point x="243" y="78"/>
      <point x="315" y="150"/>
      <point x="367" y="150" type="curve" smooth="yes"/>
      <point x="404" y="150"/>
      <point x="413" y="128"/>
      <point x="407" y="100" type="curve" smooth="yes"/>
      <point x="400" y="64"/>
      <point x="357" y="28"/>
      <point x="293" y="28" type="curve" smooth="yes"/>
      <point x="219" y="28"/>
      <point x="145" y="28"/>
      <point x="71" y="28" type="curve"/>
      <point x="450" y="462" type="line"/>
      <point x="453" y="478" type="line"/>
      <point x="151" y="478" type="line"/>
      <point x="145" y="450" type="line"/>
      <point x="407" y="450" type="line"/>
      <point x="29" y="16" type="line"/>
      <point x="26" y="0" type="line"/>
      <point x="282" y="0" type="line" smooth="yes"/>
      <point x="374" y="0"/>
      <point x="429" y="45"/>
      <point x="439" y="100" type="curve" smooth="yes"/>
      <point x="449" y="148"/>
      <point x="425" y="178"/>
      <point x="375" y="178" type="curve" smooth="yes"/>
      <point x="301" y="178"/>
      <point x="225" y="96"/>
      <point x="154" y="-74" type="curve"/>
    </contour>
    <contour>
      <point x="314" y="502" type="move" name="aboveLC"/>
    </contour>
  </outline>
</glyph>
<glyph name="zero.0c" format="1">
  <advance width="456"/>
  <outline>
    <contour>
      <point x="186" y="-12" type="curve" smooth="yes"/>
      <point x="334" y="-12"/>
      <point x="440" y="245"/>
      <point x="440" y="456" type="curve" smooth="yes"/>
      <point x="440" y="561"/>
      <point x="402" y="672"/>
      <point x="300" y="672" type="curve" smooth="yes"/>
      <point x="152" y="672"/>
      <point x="46" y="413"/>
      <point x="46" y="202" type="curve" smooth="yes"/>
      <point x="46" y="95"/>
      <point x="82" y="-12"/>
    </contour>
    <contour>
      <point x="186" y="14" type="curve" smooth="yes"/>
      <point x="102" y="14"/>
      <point x="74" y="109"/>
      <point x="74" y="208" type="curve" smooth="yes"/>
      <point x="74" y="388"/>
      <point x="168" y="646"/>
      <point x="298" y="646" type="curve" smooth="yes"/>
      <point x="382" y="646"/>
      <point x="412" y="551"/>
      <point x="412" y="450" type="curve" smooth="yes"/>
      <point x="412" y="268"/>
      <point x="316" y="14"/>
    </contour>
  </outline>
</glyph>
<glyph name="zhe" format="1">
  <advance width="616"/>
  <outline>
    <contour>
      <point x="18" y="0" type="line"/>
      <point x="52" y="0" type="line"/>
      <point x="234" y="236" type="line"/>
      <point x="340" y="236" type="line"/>
      <point x="294" y="0" type="line"/>
      <point x="322" y="0" type="line"/>
      <point x="368" y="236" type="line"/>
      <point x="474" y="236" type="line"/>
      <point x="564" y="0" type="line"/>
      <point x="598" y="0" type="line"/>
      <point x="495" y="264" type="line"/>
      <point x="373" y="264" type="line"/>
      <point x="415" y="478" type="line"/>
      <point x="387" y="478" type="line"/>
      <point x="345" y="264" type="line"/>
      <point x="223" y="264" type="line"/>
    </contour>
    <contour>
      <point x="221" y="240" type="line"/>
      <point x="249" y="243" type="line"/>
      <point x="221" y="386" type="line" smooth="yes"/>
      <point x="205" y="468"/>
      <point x="175" y="490"/>
      <point x="137" y="490" type="curve" smooth="yes"/>
      <point x="130" y="490"/>
      <point x="121" y="488"/>
      <point x="116" y="486" type="curve"/>
      <point x="119" y="456" type="line"/>
      <point x="125" y="458"/>
      <point x="126" y="458"/>
      <point x="133" y="458" type="curve" smooth="yes"/>
      <point x="159" y="458"/>
      <point x="180" y="446"/>
      <point x="193" y="378" type="curve" smooth="yes"/>
    </contour>
    <contour>
      <point x="489" y="240" type="line"/>
      <point x="569" y="378" type="line" smooth="yes"/>
      <point x="610" y="446"/>
      <point x="635" y="458"/>
      <point x="661" y="458" type="curve" smooth="yes"/>
      <point x="668" y="458"/>
      <point x="669" y="458"/>
      <point x="675" y="456" type="curve"/>
      <point x="688" y="486" type="line"/>
      <point x="685" y="488"/>
      <point x="676" y="490"/>
      <point x="669" y="490" type="curve" smooth="yes"/>
      <point x="631" y="490"/>
      <point x="593" y="468"/>
      <point x="545" y="386" type="curve" smooth="yes"/>
      <point x="461" y="243" type="line"/>
    </contour>
    <contour>
      <point x="407" y="502" type="move" name="aboveLC"/>
    </contour>
  </outline>
</glyph>
<glyph name="zretroflex" format="1">
  <advance width="396"/>
  <outline>
    <contour>
      <point x="383" y="-180" type="curve" smooth="yes"/>
      <point x="399" y="-180"/>
      <point x="422" y="-174"/>
      <point x="433" y="-168" type="curve"/>
      <point x="430" y="-142" type="line"/>
      <point x="420" y="-146"/>
      <point x="402" y="-152"/>
      <point x="386" y="-152" type="curve" smooth="yes"/>
      <point x="342" y="-152"/>
      <point x="339" y="-110"/>
      <point x="350" y="-50" type="curve" smooth="yes"/>
      <point x="365" y="28" type="line"/>
      <point x="71" y="28" type="line"/>
      <point x="450" y="462" type="line"/>
      <point x="453" y="478" type="line"/>
      <point x="151" y="478" type="line"/>
      <point x="145" y="450" type="line"/>
      <point x="407" y="450" type="line"/>
      <point x="29" y="16" type="line"/>
      <point x="26" y="0" type="line"/>
      <point x="330" y="0" type="line"/>
      <point x="320" y="-54" type="line" smooth="yes"/>
      <point x="302" y="-144"/>
      <point x="323" y="-180"/>
    </contour>
    <contour>
      <point x="314" y="500" type="move" name="aboveLC"/>
    </contour>
  </outline>
</glyph>
